<svg width="17" height="16" viewBox="0 0 17 16" fill="none" xmlns="http://www.w3.org/2000/svg">
<g clip-path="url(#clip0_724_656)">
<path fill-rule="evenodd" clip-rule="evenodd" d="M8.49922 0.266602C4.22937 0.266602 0.766602 3.72893 0.766602 8.00019C0.766602 11.4165 2.98223 14.3152 6.05524 15.3383C6.44216 15.409 6.58316 15.1703 6.58316 14.9652C6.58316 14.7814 6.57651 14.2953 6.57271 13.6501C4.42165 14.1173 3.9678 12.6133 3.9678 12.6133C3.61601 11.7198 3.10899 11.482 3.10899 11.482C2.40685 11.0025 3.16216 11.012 3.16216 11.012C3.93837 11.0666 4.34664 11.8091 4.34664 11.8091C5.03645 12.9907 6.15684 12.6493 6.59741 12.4513C6.66767 11.9519 6.86753 11.611 7.08829 11.4179C5.37113 11.2222 3.56569 10.5591 3.56569 7.59571C3.56569 6.75114 3.86716 6.06134 4.36183 5.52061C4.28208 5.32501 4.0167 4.53883 4.43779 3.47397C4.43779 3.47397 5.08676 3.26603 6.56417 4.26631C7.18086 4.09493 7.84265 4.00948 8.50017 4.00615C9.15721 4.00948 9.81854 4.09493 10.4362 4.26631C11.9126 3.26603 12.5606 3.47397 12.5606 3.47397C12.9827 4.53883 12.7173 5.32501 12.6381 5.52061C13.1336 6.06134 13.4327 6.75114 13.4327 7.59571C13.4327 10.5667 11.6244 11.2204 9.90209 11.4117C10.1793 11.6505 10.4267 12.1224 10.4267 12.844C10.4267 13.8775 10.4172 14.7116 10.4172 14.9652C10.4172 15.1721 10.5568 15.4128 10.9489 15.3373C14.0195 14.3124 16.2333 11.4159 16.2333 8.00019C16.2333 3.72893 12.7704 0.266602 8.49922 0.266602Z" fill="white"/>
</g>
<defs>
<clipPath id="clip0_724_656">
<rect width="16" height="16" fill="white" transform="translate(0.5)"/>
</clipPath>
</defs>
</svg>
