<svg width="17" height="16" viewBox="0 0 17 16" fill="none" xmlns="http://www.w3.org/2000/svg">
<path fill-rule="evenodd" clip-rule="evenodd" d="M14.2697 13.7696C14.6189 13.4205 14.8912 13.0021 15.0694 12.5415C15.2408 12.1006 15.358 11.5966 15.3917 10.8585C15.4254 10.1191 15.4334 9.88296 15.4334 7.99999C15.4334 6.11703 15.4254 5.88082 15.3917 5.1414C15.358 4.40341 15.2408 3.89943 15.0694 3.45842C14.8953 2.99579 14.6224 2.5767 14.2697 2.23038C13.9233 1.87762 13.5043 1.60465 13.0416 1.43052C12.6006 1.25925 12.0966 1.14206 11.3585 1.10851C10.6192 1.07463 10.383 1.06665 8.50005 1.06665C6.61706 1.06665 6.38087 1.07463 5.64147 1.10838C4.90346 1.14206 4.39948 1.25925 3.95847 1.43065C3.49585 1.60475 3.07676 1.87766 2.73044 2.23036C2.37766 2.57666 2.10468 2.99574 1.93052 3.45838C1.75925 3.89943 1.64206 4.40341 1.60851 5.1414C1.57463 5.88082 1.56665 6.11701 1.56665 7.99999C1.56665 9.88299 1.57463 10.1192 1.60851 10.8585C1.6422 11.5966 1.75939 12.1006 1.93079 12.5415C2.10489 13.0043 2.3778 13.4232 2.7305 13.7696C3.07682 14.1223 3.4959 14.3952 3.95852 14.5693C4.39957 14.7407 4.90355 14.8579 5.64152 14.8916C6.38103 14.9253 6.61714 14.9333 8.50011 14.9333C10.3831 14.9333 10.6193 14.9253 11.3587 14.8916C12.0967 14.8579 12.6007 14.7407 13.0416 14.5693C13.5022 14.3911 13.9206 14.1188 14.2697 13.7696ZM2.63277 7.18394C2.63304 7.40824 2.63337 7.67511 2.63337 8.00001C2.63337 8.3249 2.63304 8.59177 2.63277 8.81606C2.63171 9.69167 2.63144 9.91845 2.65426 10.4165C2.68265 11.0409 2.71676 11.4998 2.82092 11.8456C2.92106 12.1781 3.03337 12.5165 3.40004 12.9249C3.7667 13.3332 4.12037 13.5182 4.57086 13.6541C5.02136 13.7899 5.58756 13.8191 6.07921 13.8415C6.63686 13.867 6.85787 13.8669 8.0276 13.8665H8.50005C8.81256 13.8665 9.07139 13.8668 9.29028 13.8671C10.1874 13.868 10.4139 13.8683 10.9168 13.8452C11.5413 13.8168 12.0001 13.7827 12.346 13.6786C12.6784 13.5784 13.0168 13.4661 13.4251 13.0994C13.8334 12.7328 14.0184 12.3791 14.1543 11.9286C14.2902 11.4781 14.3194 10.9119 14.3418 10.4203C14.3672 9.86333 14.3671 9.64294 14.3669 8.47731L14.3668 8.0004V7.52795C14.3671 6.35822 14.3672 6.13721 14.3417 5.57956C14.3193 5.08791 14.2901 4.52171 14.1543 4.07122C14.0184 3.62073 13.8334 3.26706 13.4251 2.90039C13.0168 2.53372 12.6783 2.42141 12.346 2.32127C12 2.21711 11.5412 2.183 10.9167 2.15461C10.4138 2.13157 10.1874 2.13181 9.2903 2.13279C9.0714 2.13304 8.81257 2.13333 8.50005 2.13333L8.02749 2.13324C6.85786 2.13293 6.63685 2.13287 6.07921 2.15831C5.58756 2.18074 5.02136 2.20994 4.57086 2.34581C4.12037 2.48168 3.7667 2.66664 3.40004 3.07498C3.03337 3.48331 2.92106 3.8217 2.82092 4.15415C2.71676 4.49997 2.68265 4.95885 2.65426 5.58331C2.63144 6.08138 2.63171 6.30826 2.63277 7.18394ZM8.49994 5.60014C7.17455 5.60014 6.10011 6.67459 6.10011 7.99997C6.10011 9.32536 7.17455 10.3998 8.49994 10.3998C9.82533 10.3998 10.8998 9.32536 10.8998 7.99997C10.8998 6.67459 9.82533 5.60014 8.49994 5.60014ZM5.03345 7.99997C5.03345 6.08548 6.58545 4.53348 8.49994 4.53348C10.4144 4.53348 11.9664 6.08548 11.9664 7.99997C11.9664 9.91447 10.4144 11.4664 8.49994 11.4664C6.58545 11.4664 5.03345 9.91447 5.03345 7.99997ZM12.201 5.09897C12.6428 5.09897 13.001 4.74081 13.001 4.29897C13.001 3.85715 12.6428 3.49897 12.201 3.49897C11.7592 3.49897 11.401 3.85715 11.401 4.29897C11.401 4.74081 11.7592 5.09897 12.201 5.09897Z" fill="white"/>
</svg>
