<svg width="17" height="16" viewBox="0 0 17 16" fill="none" xmlns="http://www.w3.org/2000/svg">
<path fill-rule="evenodd" clip-rule="evenodd" d="M2.63332 1.06665C2.04422 1.06665 1.56665 1.54422 1.56665 2.13332V13.8667C1.56665 14.4558 2.04422 14.9333 2.63332 14.9333H14.3667C14.9558 14.9333 15.4333 14.4558 15.4333 13.8667V2.13332C15.4333 1.54422 14.9558 1.06665 14.3667 1.06665H2.63332ZM3.75332 6.39998H5.77998V12.8H3.75332V6.39998ZM5.91332 4.27198C5.91332 4.90527 5.39994 5.41865 4.76665 5.41865C4.13337 5.41865 3.61998 4.90527 3.61998 4.27198C3.61998 3.63869 4.13337 3.12532 4.76665 3.12532C5.39994 3.12532 5.91332 3.63869 5.91332 4.27198ZM13.3 8.91426C13.3 6.98887 12.0556 6.24034 10.8194 6.24034C10.4147 6.22039 10.0117 6.30525 9.65064 6.48646C9.37649 6.62406 9.08948 6.9389 8.86815 7.48642H8.81123V6.40045H6.89998V12.805H8.93322V9.3986C8.90382 9.04972 9.01547 8.59883 9.24389 8.33051C9.47231 8.06219 9.79907 7.99812 10.0468 7.96557H10.1241C10.7706 7.96557 11.2505 8.36586 11.2505 9.37458V12.805H13.2837L13.3 8.91426Z" fill="white"/>
</svg>
