<svg width="66" height="40" viewBox="0 0 66 40" fill="none" xmlns="http://www.w3.org/2000/svg">
<g clip-path="url(#clip0_328_461)">
<path d="M33.276 14.92C33.2723 15.0338 33.2245 15.1416 33.1426 15.2207C33.0608 15.2999 32.9514 15.3441 32.8376 15.344H28.3208C28.0248 15.344 27.7776 15.104 27.7776 14.812C27.7776 13.4944 27.3216 12.8528 26.3888 12.8528C25.456 12.8528 24.8544 13.4256 24.8368 14.4264C24.8168 15.5424 25.448 16.5568 27.2448 18.2992C29.6104 20.5184 30.5584 22.484 30.5128 25.0824C30.4384 29.284 27.5816 32 23.2344 32C21.0144 32 19.3184 31.4064 18.1904 30.2352C17.0456 29.0456 16.5208 27.3 16.6304 25.0472C16.6342 24.9333 16.6821 24.8253 16.7641 24.7462C16.8461 24.667 16.9557 24.6229 17.0696 24.6232H21.7416C21.8067 24.6242 21.8707 24.6397 21.9291 24.6685C21.9875 24.6973 22.0388 24.7386 22.0792 24.7896C22.1145 24.8317 22.1404 24.881 22.155 24.934C22.1696 24.987 22.1727 25.0425 22.164 25.0968C22.112 25.9096 22.2536 26.5168 22.5736 26.8528C22.7784 27.0704 23.064 27.1808 23.42 27.1808C24.2832 27.1808 24.7888 26.5712 24.808 25.5088C24.824 24.5904 24.5336 23.7856 22.9512 22.1576C20.9072 20.1608 19.0744 18.0976 19.1312 14.8536C19.1648 12.972 19.912 11.2512 21.236 10.008C22.636 8.6944 24.5504 8 26.7728 8C28.9992 8.016 30.6864 8.6512 31.788 9.888C32.8312 11.06 33.3328 12.7528 33.2776 14.92H33.276Z" fill="#F6F6F6"/>
<path d="M47.2761 31.2093L47.3057 8.86294C47.3066 8.80697 47.2962 8.75141 47.2753 8.6995C47.2544 8.64759 47.2233 8.60038 47.1839 8.56066C47.1444 8.52093 47.0975 8.48949 47.0457 8.46818C46.994 8.44686 46.9385 8.4361 46.8825 8.43654H39.8921C39.6569 8.43654 39.5537 8.63894 39.4865 8.77254L29.3649 31.0725V31.0765L29.3609 31.0821C29.2489 31.3565 29.4617 31.6501 29.7585 31.6501H34.6449C34.9089 31.6501 35.0841 31.5701 35.1697 31.4037L36.1401 29.0717C36.2593 28.7605 36.2817 28.7317 36.6209 28.7317H41.2897C41.6145 28.7317 41.6209 28.7381 41.6161 29.0557L41.5113 31.2237C41.5104 31.2796 41.5208 31.3351 41.5416 31.387C41.5625 31.4388 41.5935 31.486 41.6329 31.5257C41.6722 31.5654 41.7191 31.5969 41.7707 31.6183C41.8224 31.6396 41.8778 31.6505 41.9337 31.6501H46.8705C46.9316 31.6509 46.9921 31.6382 47.0478 31.6131C47.1035 31.5879 47.1531 31.5509 47.1929 31.5045C47.2273 31.4643 47.2525 31.417 47.2669 31.3661C47.2812 31.3151 47.2844 31.2616 47.2761 31.2093ZM38.6281 23.7485C38.5913 23.7487 38.5544 23.7474 38.5177 23.7445C38.5006 23.7431 38.484 23.738 38.4691 23.7294C38.4541 23.7209 38.4413 23.7092 38.4314 23.6952C38.4215 23.6812 38.4147 23.6651 38.4117 23.6482C38.4086 23.6313 38.4093 23.6139 38.4137 23.5973C38.4233 23.5653 38.4369 23.5213 38.4569 23.4677L41.9577 14.8053C41.9892 14.7199 42.0255 14.6363 42.0665 14.5549C42.1233 14.4381 42.1921 14.4301 42.2137 14.5165C42.2321 14.5885 41.8121 23.4109 41.8121 23.4109C41.7793 23.7413 41.7641 23.7549 41.4385 23.7821L38.6313 23.7501H38.6249L38.6281 23.7485Z" fill="#F6F6F6"/>
<path d="M57.2346 8.43697H53.5234C53.3274 8.43697 53.1074 8.54097 53.0562 8.77457L47.8914 31.1986C47.8801 31.2491 47.8806 31.3016 47.8928 31.352C47.905 31.4023 47.9286 31.4492 47.9618 31.489C48.0049 31.5397 48.0585 31.5804 48.1188 31.6083C48.1792 31.6362 48.2449 31.6506 48.3114 31.6506H52.9498C53.1994 31.6506 53.3698 31.5282 53.4162 31.3162L53.9794 28.7746C54.0194 28.5762 53.9506 28.4226 53.773 28.3298C53.6897 28.2869 53.6065 28.2437 53.5234 28.2002L52.7194 27.7818L51.9194 27.3642L51.6098 27.2034C51.5846 27.1908 51.5635 27.1714 51.5489 27.1473C51.5343 27.1232 51.5269 27.0955 51.5274 27.0674C51.5285 27.0257 51.5458 26.9861 51.5757 26.9571C51.6056 26.9281 51.6457 26.9119 51.6874 26.9122L54.229 26.9234C54.989 26.9274 55.7498 26.8738 56.4978 26.7362C61.7618 25.7642 65.2578 21.5482 65.3586 15.8114C65.445 10.9154 62.7122 8.43457 57.2386 8.43457L57.2346 8.43697ZM55.9714 21.781H55.8722C55.649 21.781 55.6098 21.757 55.6034 21.749C55.5994 21.7434 57.069 15.2906 57.0698 15.2818C57.1074 15.0954 57.1058 14.9882 56.9906 14.925C56.8434 14.8434 54.6978 13.7122 54.6978 13.7122C54.6729 13.6991 54.6521 13.6792 54.6378 13.6549C54.6235 13.6306 54.6163 13.6028 54.617 13.5746C54.6181 13.5335 54.6351 13.4944 54.6646 13.4657C54.694 13.437 54.7335 13.421 54.7746 13.421H58.1674C59.2234 13.453 59.8122 14.3978 59.7842 16.0114C59.7354 18.8042 58.4074 21.6826 55.9714 21.781Z" fill="#F6F6F6"/>
<path d="M19.0483 19.134V19.1444L18.1883 22.8772C18.1419 23.0884 17.9307 23.2428 17.6875 23.2428H16.6483C16.6108 23.2429 16.5744 23.2552 16.5444 23.2776C16.5145 23.3001 16.4925 23.3316 16.4819 23.3676C15.5235 26.6188 14.2259 28.8532 12.5123 30.1948C11.0547 31.3372 9.25788 31.87 6.85708 31.87C4.70028 31.87 3.24588 31.1764 2.01228 29.8068C0.38188 27.9972 -0.29172 25.034 0.11628 21.4644C0.85228 14.7628 4.32828 8.00036 11.0211 8.00036C13.0571 7.98276 14.6555 8.61076 15.7675 9.86436C16.9435 11.1908 17.5403 13.1876 17.5435 15.802C17.5406 15.9166 17.493 16.0255 17.411 16.1056C17.329 16.1857 17.2189 16.2306 17.1043 16.2308H12.2003C12.1143 16.2281 12.0327 16.1926 11.9721 16.1316C11.9116 16.0706 11.8767 15.9887 11.8747 15.9028C11.8347 14.0948 11.2987 13.2148 10.2331 13.2148C8.35308 13.2148 7.24428 15.7668 6.65628 17.1812C5.83468 19.1572 5.41628 21.3036 5.49868 23.4412C5.53788 24.4364 5.69788 25.8356 6.64268 26.4156C7.48028 26.9292 8.67548 26.5884 9.39948 26.0196C10.1227 25.45 10.7051 24.4652 10.9499 23.5668C10.9843 23.442 10.9867 23.3452 10.9539 23.302C10.9195 23.2572 10.8243 23.2468 10.7515 23.2468H9.49228C9.42563 23.247 9.35974 23.2326 9.29921 23.2047C9.23869 23.1768 9.18499 23.136 9.14188 23.0852C9.1088 23.0455 9.08531 22.9987 9.07324 22.9485C9.06117 22.8983 9.06084 22.8459 9.07228 22.7956L9.93308 19.0564C9.97548 18.8652 10.1491 18.7204 10.3627 18.6948V18.6852H18.6267C18.6459 18.6852 18.6659 18.6852 18.6843 18.6892C18.8987 18.7172 19.0499 18.9164 19.0459 19.134H19.0483Z" fill="#F6F6F6"/>
</g>
<defs>
<clipPath id="clip0_328_461">
<rect width="65.6" height="24" fill="white" transform="translate(0 8)"/>
</clipPath>
</defs>
</svg>
