<svg width="110" height="40" viewBox="0 0 110 40" fill="none" xmlns="http://www.w3.org/2000/svg">
<g clip-path="url(#clip0_328_444)">
<path d="M72.9395 9.00879H92.0511V12.5363H84.4697V31.094H80.6787V12.5363H72.9395V9.00879Z" fill="#F6F6F6"/>
<path d="M41.508 9.00879V12.5363H26.1888V18.211H38.5085V21.7384H26.1888V27.5665H41.508V31.094H22.3981V12.5363H22.3965V9.00879H41.508Z" fill="#F6F6F6"/>
<path d="M51.0512 9.01855H46.0903L63.8591 31.1038H68.8344L59.9489 20.0688L68.8202 9.0354L63.8591 9.04307L57.4652 16.9841L51.0512 9.01855Z" fill="#F6F6F6"/>
<path d="M56.1419 24.794L53.6575 21.7051L46.0762 31.1204H51.0512L56.1419 24.794Z" fill="#F6F6F6"/>
<path fill-rule="evenodd" clip-rule="evenodd" d="M22.5311 31.0944L4.73838 9H0V31.0852H3.79071V13.7207L17.769 31.0944H22.5311Z" fill="#F6F6F6"/>
<path d="M92.9035 30.9593C92.6258 30.9593 92.3897 30.8632 92.1919 30.6708C91.9942 30.4785 91.8965 30.2456 91.899 29.9697C91.8965 29.7014 91.9942 29.4711 92.1919 29.2788C92.3897 29.0864 92.6258 28.9902 92.9035 28.9902C93.1705 28.9902 93.4042 29.0864 93.6019 29.2788C93.8024 29.4711 93.9024 29.7014 93.9052 29.9697C93.9024 30.1519 93.8561 30.319 93.7637 30.4683C93.6687 30.6202 93.5481 30.7392 93.3964 30.8252C93.2474 30.9138 93.0831 30.9593 92.9035 30.9593Z" fill="#F6F6F6"/>
<path d="M99.3735 21.6562H101.053V28.128C101.051 28.7227 100.922 29.2315 100.671 29.6592C100.416 30.0869 100.064 30.4134 99.6124 30.6437C99.1629 30.8715 98.6363 30.988 98.0379 30.988C97.4907 30.988 97.0003 30.8892 96.5636 30.6969C96.1269 30.5045 95.7802 30.216 95.526 29.8364C95.2689 29.4567 95.1431 28.9834 95.1431 28.4165H96.8257C96.8282 28.6645 96.8847 28.8796 96.9925 29.0593C97.1002 29.239 97.2492 29.3757 97.4394 29.4719C97.6319 29.5681 97.853 29.6162 98.1019 29.6162C98.3718 29.6162 98.6029 29.5605 98.7903 29.4466C98.9778 29.3352 99.1217 29.1682 99.222 28.9454C99.3195 28.7253 99.371 28.4519 99.3735 28.128V21.6562Z" fill="#F6F6F6"/>
<path d="M107.964 24.1872C107.924 23.7949 107.744 23.4887 107.43 23.271C107.114 23.0508 106.706 22.942 106.205 22.942C105.853 22.942 105.55 22.9951 105.299 23.0989C105.047 23.2052 104.852 23.3469 104.718 23.5266C104.585 23.7063 104.518 23.9113 104.512 24.1417C104.512 24.334 104.559 24.5011 104.649 24.6403C104.739 24.782 104.859 24.901 105.016 24.9971C105.17 25.0958 105.342 25.1768 105.53 25.2426C105.72 25.3084 105.91 25.3641 106.1 25.4097L106.976 25.6248C107.328 25.7058 107.669 25.8147 107.995 25.9538C108.321 26.0905 108.617 26.2652 108.876 26.4752C109.136 26.6853 109.341 26.9384 109.493 27.2345C109.644 27.5306 109.721 27.8774 109.721 28.2773C109.721 28.8163 109.583 29.2896 109.303 29.6997C109.023 30.1071 108.619 30.426 108.09 30.6564C107.564 30.8842 106.927 31.0006 106.177 31.0006C105.453 31.0006 104.821 30.8892 104.289 30.6665C103.755 30.4463 103.339 30.1223 103.038 29.6971C102.738 29.2719 102.576 28.7531 102.553 28.1431H104.217C104.24 28.462 104.343 28.7278 104.518 28.9429C104.695 29.1555 104.926 29.3124 105.209 29.4187C105.494 29.5225 105.812 29.5756 106.164 29.5756C106.531 29.5756 106.855 29.52 107.135 29.4111C107.412 29.3023 107.631 29.1505 107.787 28.953C107.947 28.7581 108.026 28.5278 108.029 28.2646C108.026 28.0242 107.954 27.8242 107.815 27.6673C107.674 27.5104 107.479 27.3788 107.23 27.2725C106.978 27.1662 106.685 27.07 106.351 26.9865L105.288 26.7182C104.52 26.5233 103.911 26.2272 103.467 25.8298C103.02 25.4325 102.799 24.906 102.799 24.2454C102.799 23.7038 102.948 23.228 103.249 22.8205C103.547 22.413 103.955 22.0967 104.471 21.8714C104.99 21.6436 105.576 21.5322 106.228 21.5322C106.891 21.5322 107.471 21.6436 107.972 21.8714C108.473 22.0967 108.866 22.4105 109.151 22.8104C109.436 23.2103 109.585 23.6684 109.593 24.1872H107.964Z" fill="#F6F6F6"/>
</g>
<defs>
<clipPath id="clip0_328_444">
<rect width="109.722" height="22" fill="white" transform="translate(0 9)"/>
</clipPath>
</defs>
</svg>
