<svg width="97" height="40" viewBox="0 0 97 40" fill="none" xmlns="http://www.w3.org/2000/svg">
<path d="M14.757 16.9871C15.0651 16.0456 15.5276 15.2118 16.1437 14.4863C16.7598 13.761 17.5269 13.1816 18.4439 12.7495C19.361 12.3171 20.429 12.1006 21.6476 12.1006C22.8656 12.1006 23.9337 12.3172 24.8507 12.7495C25.7678 13.1816 26.5349 13.761 27.1509 14.4863C27.767 15.2117 28.2296 16.0456 28.5376 16.9871C28.8456 17.9285 29.0001 18.9085 29.0001 19.927C29.0001 20.9454 28.8456 21.9258 28.5376 22.8673C28.2296 23.8088 27.767 24.6426 27.1509 25.3681C26.5349 26.0934 25.7678 26.6692 24.8507 27.0946C23.9337 27.5195 22.8656 27.7327 21.6476 27.7327C20.4291 27.7327 19.361 27.5195 18.4439 27.0946C17.5269 26.6692 16.7598 26.0934 16.1437 25.3681C15.5276 24.6427 15.0651 23.8088 14.757 22.8673C14.4489 21.9258 14.2949 20.9454 14.2949 19.927C14.2949 18.9085 14.449 17.9285 14.757 16.9871ZM16.632 22.1632C16.8331 22.8964 17.1487 23.5561 17.5794 24.1425C18.0097 24.729 18.5621 25.2003 19.2368 25.5566C19.9109 25.9128 20.7144 26.0904 21.6476 26.0904C22.5803 26.0904 23.3837 25.9128 24.0584 25.5566C24.7326 25.2003 25.285 24.729 25.7158 24.1425C26.146 23.5561 26.4616 22.8964 26.6625 22.1632C26.8635 21.4299 26.9641 20.6863 26.9641 19.9323C26.9641 19.1783 26.8635 18.4353 26.6625 17.702C26.4616 16.9688 26.1459 16.3091 25.7158 15.7223C25.285 15.1361 24.7326 14.6649 24.0584 14.3086C23.3837 13.9524 22.5803 13.7742 21.6476 13.7742C20.7144 13.7742 19.911 13.9524 19.2368 14.3086C18.5621 14.665 18.0097 15.1362 17.5794 15.7223C17.1486 16.3091 16.8331 16.9688 16.632 17.702C16.4311 18.4352 16.3311 19.1783 16.3311 19.9323C16.3311 20.6863 16.4311 21.4299 16.632 22.1632Z" fill="#FCFCFC"/>
<path d="M32.0287 17.8798V19.1706H32.061C32.3247 18.6421 32.7392 18.2577 33.3048 18.0179C33.8704 17.7781 34.492 17.6582 35.1707 17.6582C35.9242 17.6582 36.5807 17.7934 37.1401 18.0638C37.6992 18.3342 38.1637 18.6994 38.5344 19.1597C38.9051 19.6206 39.1843 20.1515 39.3732 20.7531C39.5616 21.355 39.656 21.9936 39.656 22.669C39.656 23.3445 39.5646 23.9831 39.3827 24.5851C39.2004 25.1869 38.9243 25.712 38.5535 26.1601C38.1829 26.6082 37.7178 26.9615 37.1588 27.219C36.5992 27.4767 35.9493 27.6058 35.208 27.6058C34.9691 27.6058 34.702 27.5812 34.407 27.5323C34.1117 27.4826 33.8198 27.4031 33.5309 27.2926C33.2421 27.182 32.9683 27.0309 32.7108 26.8406C32.4533 26.6501 32.2367 26.4138 32.0609 26.1305H32.0286V31.0481H30.4126V17.8798H32.0287ZM37.7644 21.2667C37.6452 20.8434 37.464 20.4659 37.2196 20.1343C36.9751 19.8027 36.6616 19.5387 36.2793 19.3424C35.8965 19.146 35.4486 19.0478 34.935 19.0478C34.3957 19.0478 33.9382 19.1524 33.5625 19.3611C33.1862 19.5699 32.8793 19.8427 32.6409 20.1803C32.4026 20.5178 32.2303 20.9017 32.1238 21.3315C32.0172 21.7612 31.9642 22.197 31.9642 22.6385C31.9642 23.1053 32.0202 23.5565 32.1334 23.9921C32.2459 24.4284 32.4247 24.8116 32.6692 25.1433C32.9135 25.4749 33.2297 25.7419 33.6186 25.9443C34.0074 26.1469 34.4776 26.2481 35.0289 26.2481C35.5804 26.2481 36.0409 26.144 36.4106 25.9353C36.7803 25.7266 37.0783 25.4504 37.304 25.1064C37.5292 24.7629 37.6923 24.3702 37.7928 23.9281C37.8928 23.4859 37.9432 23.0319 37.9432 22.5652C37.9431 22.1233 37.8835 21.6906 37.7644 21.2667Z" fill="#FCFCFC"/>
<path d="M47.8986 26.7961C47.1682 27.3359 46.2498 27.6058 45.1417 27.6058C44.361 27.6058 43.6838 27.4831 43.1112 27.2378C42.538 26.9921 42.0563 26.6481 41.6659 26.2059C41.2756 25.7639 40.9827 25.236 40.7878 24.6216C40.5929 24.0077 40.4828 23.3381 40.4575 22.6137C40.4575 21.8894 40.5706 21.2262 40.7978 20.6242C41.0246 20.0223 41.3427 19.5002 41.7523 19.058C42.1618 18.6159 42.6471 18.2725 43.2076 18.0268C43.7682 17.7811 44.3828 17.6582 45.0509 17.6582C45.9205 17.6582 46.6416 17.8338 47.2152 18.1842C47.789 18.535 48.249 18.9811 48.5954 19.5224C48.9418 20.0642 49.1817 20.6548 49.314 21.2942C49.4463 21.9342 49.4998 22.5432 49.4746 23.1215H42.1705C42.1578 23.5385 42.2078 23.9337 42.3209 24.3077C42.4341 24.6817 42.6159 25.0128 42.8673 25.3011C43.1189 25.5892 43.439 25.8186 43.8288 25.9903C44.2182 26.162 44.6768 26.2479 45.2044 26.2479C45.8826 26.2479 46.4387 26.0945 46.8719 25.787C47.3052 25.4796 47.591 25.0124 47.7294 24.3847H49.315C49.1009 25.4525 48.6288 26.2563 47.8986 26.7961ZM47.507 20.6839C47.3628 20.3533 47.1683 20.0681 46.9239 19.8293C46.679 19.5905 46.3902 19.4005 46.0578 19.2594C45.725 19.1183 45.3579 19.0477 44.9564 19.0477C44.5424 19.0477 44.1687 19.1183 43.8364 19.2594C43.5036 19.4005 43.2183 19.5935 42.9799 19.8382C42.7415 20.0834 42.5532 20.3687 42.4153 20.6933C42.2769 21.018 42.1956 21.3643 42.1704 21.7319H47.7618C47.7364 21.3643 47.6516 21.015 47.507 20.6839Z" fill="#FCFCFC"/>
<path d="M52.064 17.8798V19.3922H52.0943C52.7638 18.2365 53.8259 17.6582 55.2797 17.6582C55.9241 17.6582 56.4612 17.7445 56.8915 17.9168C57.3212 18.089 57.6687 18.3288 57.9343 18.6363C58.1999 18.9436 58.3863 19.3093 58.4938 19.7336C58.6009 20.158 58.655 20.6283 58.655 21.1449V27.4164H57.0391V20.9647C57.0391 20.3751 56.8622 19.9083 56.5092 19.5639C56.1558 19.2199 55.6705 19.0476 55.0528 19.0476C54.5612 19.0476 54.1353 19.1217 53.7758 19.2692C53.4163 19.4168 53.1168 19.6255 52.8774 19.8959C52.6382 20.1663 52.4584 20.4826 52.3387 20.8447C52.2185 21.2074 52.1589 21.6036 52.1589 22.0339V27.4162H50.543V17.8798H52.064Z" fill="#FCFCFC"/>
<path d="M69.8262 27.3124C69.0965 27.613 68.3596 27.7635 67.6164 27.7635C66.4428 27.7635 65.3878 27.5635 64.4506 27.1649C63.5133 26.7658 62.7231 26.2161 62.0792 25.5154C61.4353 24.8153 60.9419 23.9922 60.5985 23.0468C60.2552 22.1014 60.0835 21.0819 60.0835 19.9895C60.0835 18.8694 60.2548 17.8292 60.5971 16.8695C60.9396 15.9102 61.4318 15.0734 62.0741 14.3589C62.7166 13.6443 63.5059 13.0843 64.4425 12.6777C65.3792 12.2716 66.4341 12.0684 67.6077 12.0684C68.3944 12.0684 69.156 12.1843 69.8927 12.4158C70.6295 12.6476 71.2947 12.9881 71.8886 13.4371C72.4823 13.8862 72.9722 14.4398 73.3584 15.0975C73.7448 15.7558 73.9812 16.5107 74.0669 17.3633H70.8483C70.6478 16.525 70.2614 15.8958 69.6892 15.4765C69.1166 15.057 68.4228 14.8474 67.6077 14.8474C66.8493 14.8474 66.2053 14.9909 65.6762 15.2781C65.147 15.5653 64.7176 15.9507 64.3883 16.4338C64.0591 16.9173 63.8198 17.4669 63.6699 18.0833C63.5193 18.6996 63.4447 19.3366 63.4447 19.9948C63.4447 20.6255 63.5198 21.2383 63.6703 21.8334C63.8209 22.4284 64.0607 22.9642 64.3899 23.4405C64.7191 23.9165 65.149 24.298 65.6791 24.5852C66.2089 24.8724 66.8537 25.016 67.6133 25.016C68.7304 25.016 69.5928 24.7408 70.2017 24.19C70.8107 23.6393 71.1653 22.841 71.2658 21.7949H67.8753V19.3316H74.3038V27.4275H72.1648L71.8223 25.7291C71.2215 26.484 70.5559 27.012 69.8262 27.3124Z" fill="#FCFCFC"/>
<path d="M79.767 12.4473V24.637H87.2352V27.416H76.4058V12.4473H79.767Z" fill="#FCFCFC"/>
<path d="M63.8715 29.2763C58.7288 32.3326 51.0262 34.0723 42.4321 34.0723C26.9484 34.0723 14.3963 27.7724 14.3963 20.0007C14.3963 12.229 26.9484 5.92909 42.4321 5.92909C51.0577 5.92909 58.7916 7.70099 63.9345 10.7765C58.3209 5.6235 48.2559 2.00274 36.7477 2.00098C19.1225 1.99818 4.83306 10.0549 4.83154 19.9958C4.83002 29.9366 19.1168 37.9982 36.7421 38.0006C48.2045 38.0025 58.2434 34.3933 63.8715 29.2763Z" fill="#FCFCFC"/>
<path d="M91.701 26.0338C91.701 26.2851 91.6382 26.5192 91.5126 26.7361C91.387 26.9531 91.2157 27.1241 90.9987 27.2491C90.7818 27.3741 90.5476 27.4367 90.2964 27.4367C90.0463 27.4367 89.8128 27.3742 89.5959 27.2491C89.3789 27.1241 89.2075 26.9531 89.082 26.7361C88.9563 26.5192 88.8936 26.285 88.8936 26.0338C88.8936 25.7837 88.9563 25.55 89.082 25.3323C89.2075 25.1147 89.3789 24.9435 89.5959 24.8184C89.8128 24.6934 90.0463 24.6309 90.2964 24.6309C90.5477 24.6309 90.7818 24.6933 90.9987 24.8184C91.2157 24.9435 91.387 25.1147 91.5126 25.3323C91.6382 25.55 91.701 25.7837 91.701 26.0338ZM91.4289 26.0338C91.4289 25.7212 91.3182 25.4543 91.097 25.233C90.8757 25.0117 90.6088 24.9012 90.2963 24.9012C89.9838 24.9012 89.7168 25.0118 89.4955 25.233C89.2743 25.4543 89.1637 25.7212 89.1637 26.0338C89.1637 26.3464 89.2744 26.6132 89.4955 26.8345C89.7168 27.0558 89.9838 27.1664 90.2963 27.1664C90.6088 27.1664 90.8757 27.0557 91.097 26.8345C91.3182 26.6132 91.4289 26.3464 91.4289 26.0338ZM89.6601 25.2836H90.3313C90.5212 25.2836 90.6589 25.3219 90.744 25.3985C90.8291 25.4751 90.8719 25.5777 90.8719 25.7065C90.8719 25.807 90.8394 25.894 90.7744 25.9676C90.7095 26.0412 90.6071 26.0945 90.4673 26.1276C90.5249 26.1496 90.5672 26.1729 90.5942 26.1974C90.6322 26.2318 90.672 26.2826 90.7137 26.35C90.7161 26.3549 90.797 26.4996 90.9564 26.784H90.5151C90.3717 26.4984 90.2755 26.3276 90.2265 26.2719C90.1774 26.2162 90.1283 26.1882 90.0793 26.1882C90.0683 26.1882 90.0529 26.19 90.0334 26.1937V26.784H89.6601V25.2836ZM90.0334 25.9197H90.1951C90.303 25.9197 90.3791 25.9023 90.4232 25.8674C90.4673 25.8324 90.4894 25.7874 90.4894 25.7322C90.4894 25.6771 90.4682 25.632 90.4259 25.5971C90.3836 25.5621 90.3115 25.5448 90.2099 25.5448H90.0334V25.9197Z" fill="#FCFCFC"/>
</svg>
