<svg width="133" height="42" viewBox="0 0 133 42" fill="none" xmlns="http://www.w3.org/2000/svg">
<path fill-rule="evenodd" clip-rule="evenodd" d="M11.05 41.1488L1.0957 0.850586L41 12.3393L11.05 41.1488Z" stroke="#FCFCFC" stroke-width="0.921418" stroke-miterlimit="10" stroke-linejoin="round"/>
<path fill-rule="evenodd" clip-rule="evenodd" d="M21.0407 6.59668L26.0143 26.7518L6.07324 21.0056L21.0407 6.59668Z" stroke="#FCFCFC" stroke-width="0.921418" stroke-miterlimit="10" stroke-linejoin="round"/>
<path fill-rule="evenodd" clip-rule="evenodd" d="M16.0924 23.7379L13.6221 13.7256L23.5292 16.5695L16.0924 23.7379Z" stroke="#FCFCFC" stroke-width="0.921418" stroke-miterlimit="10" stroke-linejoin="round"/>
<path fill-rule="evenodd" clip-rule="evenodd" d="M11.1511 3.72559L13.6214 13.7379L3.71436 10.894L11.1511 3.72559Z" stroke="#FCFCFC" stroke-width="0.921418" stroke-miterlimit="10" stroke-linejoin="round"/>
<path fill-rule="evenodd" clip-rule="evenodd" d="M30.9641 9.43359L33.4344 19.4459L23.5273 16.602L30.9641 9.43359Z" stroke="#FCFCFC" stroke-width="0.921418" stroke-miterlimit="10" stroke-linejoin="round"/>
<path fill-rule="evenodd" clip-rule="evenodd" d="M16.0935 23.7461L18.5638 33.7584L8.65674 30.9145L16.0935 23.7461Z" stroke="#FCFCFC" stroke-width="0.921418" stroke-miterlimit="10" stroke-linejoin="round"/>
<path d="M61.716 27V15.606H57.54V14.4H67.26V15.606H63.102V27H61.716ZM69.575 27V14.004L70.889 13.734V19.638C71.561 18.594 72.491 18.072 73.679 18.072C74.315 18.072 74.867 18.21 75.335 18.486C75.815 18.75 76.187 19.128 76.451 19.62C76.727 20.1 76.865 20.664 76.865 21.312V27H75.551V21.69C75.551 20.91 75.335 20.298 74.903 19.854C74.483 19.398 73.913 19.17 73.193 19.17C72.713 19.17 72.275 19.284 71.879 19.512C71.483 19.74 71.153 20.076 70.889 20.52V27H69.575ZM80.2599 27V25.92H82.6719V19.296H80.2599V18.216H83.9859V20.178C84.2499 19.506 84.6459 18.99 85.1739 18.63C85.7019 18.258 86.3139 18.072 87.0099 18.072C87.2859 18.072 87.5319 18.096 87.7479 18.144C87.9639 18.18 88.2219 18.246 88.5219 18.342V19.548C88.2219 19.452 87.9339 19.374 87.6579 19.314C87.3939 19.254 87.1299 19.224 86.8659 19.224C86.2179 19.224 85.6419 19.392 85.1379 19.728C84.6339 20.064 84.2499 20.544 83.9859 21.168V25.92H86.5419V27H80.2599ZM94.9949 27.18C94.1549 27.18 93.3989 26.982 92.7269 26.586C92.0549 26.178 91.5209 25.632 91.1249 24.948C90.7409 24.252 90.5489 23.472 90.5489 22.608C90.5489 21.744 90.7349 20.97 91.1069 20.286C91.4789 19.602 91.9829 19.062 92.6189 18.666C93.2669 18.27 93.9869 18.072 94.7789 18.072C95.6069 18.072 96.3449 18.27 96.9929 18.666C97.6409 19.05 98.1509 19.578 98.5229 20.25C98.8949 20.91 99.0809 21.66 99.0809 22.5V22.896H91.8269C91.8749 23.496 92.0429 24.036 92.3309 24.516C92.6189 24.984 92.9969 25.356 93.4649 25.632C93.9449 25.896 94.4729 26.028 95.0489 26.028C95.5649 26.028 96.0449 25.932 96.4889 25.74C96.9449 25.536 97.3229 25.26 97.6229 24.912L98.5409 25.722C98.0729 26.202 97.5389 26.568 96.9389 26.82C96.3389 27.06 95.6909 27.18 94.9949 27.18ZM91.8629 21.924H97.7849C97.7129 21.396 97.5329 20.928 97.2449 20.52C96.9689 20.112 96.6149 19.794 96.1829 19.566C95.7629 19.326 95.2889 19.206 94.7609 19.206C94.2689 19.206 93.8189 19.32 93.4109 19.548C93.0029 19.776 92.6609 20.094 92.3849 20.502C92.1209 20.91 91.9469 21.384 91.8629 21.924ZM105.788 27.18C104.948 27.18 104.192 26.982 103.52 26.586C102.848 26.178 102.314 25.632 101.918 24.948C101.534 24.252 101.342 23.472 101.342 22.608C101.342 21.744 101.528 20.97 101.9 20.286C102.272 19.602 102.776 19.062 103.412 18.666C104.06 18.27 104.78 18.072 105.572 18.072C106.4 18.072 107.138 18.27 107.786 18.666C108.434 19.05 108.944 19.578 109.316 20.25C109.688 20.91 109.874 21.66 109.874 22.5V22.896H102.62C102.668 23.496 102.836 24.036 103.124 24.516C103.412 24.984 103.79 25.356 104.258 25.632C104.738 25.896 105.266 26.028 105.842 26.028C106.358 26.028 106.838 25.932 107.282 25.74C107.738 25.536 108.116 25.26 108.416 24.912L109.334 25.722C108.866 26.202 108.332 26.568 107.732 26.82C107.132 27.06 106.484 27.18 105.788 27.18ZM102.656 21.924H108.578C108.506 21.396 108.326 20.928 108.038 20.52C107.762 20.112 107.408 19.794 106.976 19.566C106.556 19.326 106.082 19.206 105.554 19.206C105.062 19.206 104.612 19.32 104.204 19.548C103.796 19.776 103.454 20.094 103.178 20.502C102.914 20.91 102.74 21.384 102.656 21.924ZM115.879 27.198C114.835 27.198 113.929 26.916 113.161 26.352C112.393 25.788 111.835 24.996 111.487 23.976L112.747 23.472C113.347 25.116 114.397 25.938 115.897 25.938C116.797 25.938 117.517 25.602 118.057 24.93C118.597 24.258 118.867 23.358 118.867 22.23V14.4H120.253V22.248C120.253 23.256 120.073 24.132 119.713 24.876C119.365 25.62 118.861 26.196 118.201 26.604C117.553 27 116.779 27.198 115.879 27.198ZM127.338 27.198C126.498 27.198 125.706 27.042 124.962 26.73C124.218 26.406 123.468 25.902 122.712 25.218L123.54 24.174C124.284 24.846 124.944 25.32 125.52 25.596C126.096 25.872 126.714 26.01 127.374 26.01C127.926 26.01 128.412 25.908 128.832 25.704C129.264 25.488 129.6 25.2 129.84 24.84C130.092 24.468 130.218 24.054 130.218 23.598C130.218 23.082 130.086 22.674 129.822 22.374C129.57 22.062 129.234 21.822 128.814 21.654C128.394 21.474 127.932 21.324 127.428 21.204C126.924 21.072 126.414 20.934 125.898 20.79C125.394 20.646 124.932 20.454 124.512 20.214C124.092 19.962 123.75 19.626 123.486 19.206C123.234 18.786 123.108 18.24 123.108 17.568C123.108 16.908 123.27 16.326 123.594 15.822C123.93 15.318 124.392 14.922 124.98 14.634C125.58 14.346 126.264 14.202 127.032 14.202C127.8 14.202 128.532 14.328 129.228 14.58C129.936 14.82 130.686 15.222 131.478 15.786L130.758 16.866C130.098 16.362 129.462 15.99 128.85 15.75C128.238 15.498 127.638 15.372 127.05 15.372C126.282 15.372 125.652 15.57 125.16 15.966C124.68 16.35 124.44 16.836 124.44 17.424C124.44 17.952 124.566 18.372 124.818 18.684C125.082 18.996 125.424 19.242 125.844 19.422C126.276 19.602 126.744 19.758 127.248 19.89C127.764 20.01 128.274 20.142 128.778 20.286C129.294 20.43 129.762 20.628 130.182 20.88C130.614 21.12 130.956 21.45 131.208 21.87C131.472 22.29 131.604 22.842 131.604 23.526C131.604 24.222 131.418 24.852 131.046 25.416C130.686 25.968 130.182 26.406 129.534 26.73C128.898 27.042 128.166 27.198 127.338 27.198Z" fill="#FCFCFC"/>
</svg>
