<svg width="32" height="29" viewBox="0 0 32 29" fill="none" xmlns="http://www.w3.org/2000/svg">
<path d="M30.539 6.89443C30.189 5.57776 29.1612 4.54443 27.8557 4.19443C25.489 3.55554 16.0001 3.55554 16.0001 3.55554C16.0001 3.55554 6.51121 3.55554 4.14455 4.19443C2.83899 4.54443 1.81121 5.57776 1.46121 6.89443C0.827881 9.27776 0.827881 14.2444 0.827881 14.2444C0.827881 14.2444 0.827881 19.2111 1.46121 21.5944C1.81121 22.9111 2.83899 23.9 4.14455 24.25C6.51121 24.8889 16.0001 24.8889 16.0001 24.8889C16.0001 24.8889 25.489 24.8889 27.8557 24.25C29.1612 23.9 30.189 22.9055 30.539 21.5944C31.1723 19.2111 31.1723 14.2444 31.1723 14.2444C31.1723 14.2444 31.1723 9.27776 30.539 6.89443ZM12.9001 18.7555V9.73332L20.8279 14.2444L12.9001 18.7555Z" fill="#F6F6F6"/>
</svg>
