<svg width="648" height="118" viewBox="0 0 648 118" fill="none" xmlns="http://www.w3.org/2000/svg">
<path d="M619.183 93.5896C613.006 93.5896 607.446 92.2383 602.504 89.5356C597.562 86.7557 593.662 83.0492 590.805 78.416C587.948 73.7057 586.519 68.4548 586.519 62.6633C586.519 56.7947 587.948 51.5438 590.805 46.9106C593.662 42.2775 597.562 38.6096 602.504 35.9069C607.446 33.127 613.006 31.7371 619.183 31.7371C625.438 31.7371 631.075 33.0498 636.094 35.6752C641.113 38.3007 645.013 41.7756 647.793 46.0998L633.662 56.4086C632.349 53.7059 630.418 51.5824 627.87 50.038C625.322 48.4936 622.465 47.7214 619.299 47.7214C616.596 47.7214 614.164 48.3778 612.002 49.6905C609.917 51.0032 608.257 52.7793 607.021 55.0186C605.786 57.258 605.168 59.8062 605.168 62.6633C605.168 65.5204 605.786 68.0687 607.021 70.308C608.257 72.5474 609.917 74.3234 612.002 75.6361C614.164 76.9489 616.596 77.6052 619.299 77.6052C622.465 77.6052 625.322 76.833 627.87 75.2887C630.418 73.667 632.349 71.5435 633.662 68.9181L647.793 79.2268C645.013 83.5511 641.113 87.026 636.094 89.6514C631.075 92.2769 625.438 93.5896 619.183 93.5896Z" fill="white"/>
<path d="M567.399 93.5896C559.136 93.5896 552.882 91.6205 548.635 87.6823C544.388 83.7441 542.264 77.9141 542.264 70.1922V47.1423H521.647V32.6637H561.028V68.2231C561.028 71.5435 561.839 73.9759 563.461 75.5203C565.082 77.0647 567.669 77.8369 571.221 77.8369C572.92 77.8369 574.542 77.6824 576.086 77.3736C577.708 77.0647 579.484 76.5242 581.414 75.752V90.9255C580.179 91.5433 578.171 92.1224 575.391 92.6629C572.611 93.2807 569.947 93.5896 567.399 93.5896Z" fill="white"/>
<path d="M543.475 23.1542C545.791 25.4708 548.571 26.6291 551.815 26.6291C555.058 26.6291 557.838 25.4708 560.154 23.1542C562.471 20.8376 563.629 18.0577 563.629 14.8145C563.629 11.5713 562.471 8.79144 560.154 6.47486C557.838 4.15829 555.058 3 551.815 3C548.571 3 545.791 4.15829 543.475 6.47486C541.158 8.79144 540 11.5713 540 14.8145C540 18.0577 541.158 20.8376 543.475 23.1542Z" fill="#FCFCFC"/>
<path d="M497.43 93.5896C489.09 93.5896 482.797 91.7363 478.55 88.0298C474.303 84.2461 472.179 78.6863 472.179 71.3505V47.1423H454.689V32.6637H472.179V16.1002L490.943 12.2778V32.6637H513.53V47.1423H490.943V67.644C490.943 71.4277 491.677 74.0918 493.144 75.6361C494.688 77.1033 497.352 77.8369 501.136 77.8369C502.835 77.8369 504.65 77.721 506.58 77.4894C508.511 77.2577 510.943 76.7558 513.877 75.9836V91.1572C511.561 91.7749 508.858 92.3155 505.769 92.7788C502.758 93.3193 499.978 93.5896 497.43 93.5896Z" fill="#37FFA8"/>
<path d="M431.978 93.5896C423.638 93.5896 417.345 91.7363 413.098 88.0298C408.851 84.2461 406.727 78.6863 406.727 71.3505V47.1423H389.237V32.6637H406.727V16.1002L425.491 12.2778V32.6637H448.078V47.1423H425.491V67.644C425.491 71.4277 426.225 74.0918 427.692 75.6361C429.236 77.1033 431.9 77.8369 435.684 77.8369C437.383 77.8369 439.198 77.721 441.128 77.4894C443.059 77.2577 445.491 76.7558 448.425 75.9836V91.1572C446.109 91.7749 443.406 92.3155 440.317 92.7788C437.306 93.3193 434.526 93.5896 431.978 93.5896Z" fill="#37FFA8"/>
<path d="M346.488 93.3579C342.472 93.3579 338.882 92.5857 335.716 91.0414C332.627 89.497 330.194 87.3734 328.418 84.6708C326.72 81.9681 325.87 78.8407 325.87 75.2887C325.87 71.5821 326.797 68.4548 328.65 65.9065C330.503 63.2811 333.167 61.312 336.642 59.9993C340.117 58.6093 344.287 57.9144 349.152 57.9144C351.314 57.9144 353.515 58.146 355.754 58.6093C357.993 59.0726 360.426 59.8448 363.051 60.9259V55.8294C363.051 52.8951 362.086 50.733 360.155 49.343C358.225 47.8759 355.252 47.1423 351.237 47.1423C348.997 47.1423 346.488 47.5284 343.708 48.3006C341.005 48.9955 337.916 50.0766 334.441 51.5438L327.723 38.2235C332.743 35.9841 337.492 34.3625 341.97 33.3587C346.526 32.2776 351.005 31.7371 355.406 31.7371C363.669 31.7371 370.078 33.7062 374.634 37.6443C379.267 41.5825 381.584 47.1037 381.584 54.2078V92.4313H363.051V86.7557C360.426 89.0723 357.8 90.7711 355.175 91.8522C352.549 92.856 349.654 93.3579 346.488 93.3579ZM343.129 74.9412C343.129 76.8716 343.939 78.3774 345.561 79.4585C347.183 80.4623 349.422 80.9643 352.279 80.9643C354.287 80.9643 356.179 80.694 357.955 80.1535C359.808 79.5357 361.507 78.6863 363.051 77.6052V70.5397C361.352 70.0764 359.615 69.7289 357.839 69.4972C356.14 69.1883 354.441 69.0339 352.742 69.0339C349.731 69.0339 347.376 69.5358 345.677 70.5397C343.978 71.5435 343.129 73.0107 343.129 74.9412Z" fill="#37FFA8"/>
<path d="M258.68 92.4313V32.6637H273.97V37.6443C275.36 35.7139 276.866 34.2467 278.487 33.2428C280.186 32.239 282.039 31.7371 284.047 31.7371C286.518 31.7371 288.719 32.3548 290.649 33.5903C292.657 34.8258 294.201 36.5633 295.282 38.8026C296.827 36.486 298.603 34.7486 300.61 33.5903C302.695 32.3548 305.012 31.7371 307.56 31.7371C311.421 31.7371 314.587 33.1656 317.058 36.0227C319.529 38.8026 320.765 42.4319 320.765 46.9106V92.4313H305.475V51.8913C305.475 49.8836 305.051 48.3006 304.201 47.1423C303.352 45.9068 302.155 45.289 300.61 45.289C299.993 45.289 299.414 45.4048 298.873 45.6365C298.333 45.7909 297.831 46.0612 297.367 46.4473C297.367 46.679 297.367 46.9492 297.367 47.2581C297.367 47.4898 297.367 47.76 297.367 48.0689V92.4313H282.078V51.8913C282.078 49.8836 281.653 48.3006 280.804 47.1423C279.954 45.9068 278.757 45.289 277.213 45.289C276.673 45.289 276.132 45.3662 275.591 45.5207C275.051 45.6751 274.51 45.9454 273.97 46.3315V92.4313H258.68Z" fill="#37FFA8"/>
<path d="M222.417 117.798C217.939 117.798 213.576 117.334 209.329 116.408C205.159 115.481 201.259 114.168 197.63 112.47L203.421 98.9177C206.742 100.462 209.908 101.62 212.919 102.393C215.931 103.165 218.865 103.551 221.722 103.551C229.599 103.551 233.537 99.8829 233.537 92.5471V86.1765C231.606 88.1842 229.29 89.8058 226.587 91.0413C223.962 92.1996 221.182 92.7788 218.248 92.7788C213.614 92.7788 209.367 91.4274 205.506 88.7248C201.723 85.9449 198.711 82.277 196.472 77.7211C194.232 73.0879 193.113 67.9914 193.113 62.4317C193.113 56.7947 194.31 51.7368 196.703 47.2581C199.097 42.7022 202.302 39.0729 206.317 36.3702C210.333 33.6675 214.773 32.3162 219.637 32.3162C222.34 32.3162 224.888 32.8567 227.282 33.9378C229.753 35.0189 231.915 36.5633 233.769 38.5709V32.6637H252.185V92.7788C252.185 100.81 249.637 106.987 244.541 111.311C239.444 115.636 232.07 117.798 222.417 117.798ZM224.039 77.8369C225.969 77.8369 227.707 77.4894 229.251 76.7944C230.796 76.0994 232.224 75.1342 233.537 73.8987V50.9646C232.224 49.7291 230.757 48.8025 229.135 48.1847C227.514 47.4898 225.815 47.1423 224.039 47.1423C221.491 47.1423 219.251 47.7986 217.321 49.1114C215.468 50.4241 214.039 52.2387 213.035 54.5553C212.031 56.8719 211.529 59.5359 211.529 62.5475C211.529 65.4818 212.031 68.1073 213.035 70.4238C214.116 72.7404 215.583 74.5551 217.437 75.8678C219.29 77.1805 221.491 77.8369 224.039 77.8369Z" fill="white"/>
<path d="M150.131 93.3579C146.116 93.3579 142.525 92.5857 139.359 91.0414C136.271 89.497 133.838 87.3734 132.062 84.6708C130.363 81.9681 129.514 78.8407 129.514 75.2887C129.514 71.5821 130.441 68.4548 132.294 65.9065C134.147 63.2811 136.811 61.312 140.286 59.9993C143.761 58.6093 147.931 57.9144 152.796 57.9144C154.958 57.9144 157.158 58.146 159.398 58.6093C161.637 59.0726 164.07 59.8448 166.695 60.9259V55.8294C166.695 52.8951 165.73 50.733 163.799 49.343C161.869 47.8759 158.896 47.1423 154.88 47.1423C152.641 47.1423 150.131 47.5284 147.352 48.3006C144.649 48.9955 141.56 50.0766 138.085 51.5438L131.367 38.2235C136.386 35.9841 141.135 34.3625 145.614 33.3587C150.17 32.2776 154.649 31.7371 159.05 31.7371C167.313 31.7371 173.722 33.7062 178.278 37.6443C182.911 41.5825 185.228 47.1037 185.228 54.2078V92.4313H166.695V86.7557C164.07 89.0723 161.444 90.7711 158.819 91.8522C156.193 92.856 153.297 93.3579 150.131 93.3579ZM146.772 74.9412C146.772 76.8716 147.583 78.3774 149.205 79.4585C150.826 80.4623 153.066 80.9643 155.923 80.9643C157.931 80.9643 159.822 80.694 161.599 80.1535C163.452 79.5357 165.151 78.6863 166.695 77.6052V70.5397C164.996 70.0764 163.259 69.7289 161.483 69.4972C159.784 69.1883 158.085 69.0339 156.386 69.0339C153.375 69.0339 151.02 69.5358 149.321 70.5397C147.622 71.5435 146.772 73.0107 146.772 74.9412Z" fill="white"/>
<path d="M65.3361 92.4313V77.9527H78.309V47.1423H65.3361V32.6637H97.0732V47.7214C99.2353 42.2389 101.938 38.2235 105.181 35.6752C108.502 33.0498 112.247 31.7371 116.417 31.7371C118.193 31.7371 119.583 31.8529 120.586 32.0845C121.667 32.3162 122.942 32.7795 124.409 33.4745V50.2697C122.942 49.5747 121.166 49.0728 119.081 48.7639C117.073 48.3778 115.065 48.1847 113.058 48.1847C109.814 48.1847 106.764 48.9183 103.907 50.3855C101.05 51.7754 98.772 53.7059 97.0732 56.1769V77.9527H110.741V92.4313H65.3361Z" fill="white"/>
<path d="M0 116.639V32.6637H18.0693V38.4551C19.9998 36.293 22.1619 34.6328 24.5557 33.4745C27.0267 32.3162 29.6908 31.7371 32.5479 31.7371C37.4127 31.7371 41.8528 33.0884 45.8682 35.7911C49.8836 38.4937 53.0882 42.1616 55.4819 46.7948C57.8757 51.4279 59.0726 56.6788 59.0726 62.5475C59.0726 68.3389 57.8757 73.5898 55.4819 78.3002C53.0882 82.9333 49.8836 86.6013 45.8682 89.3039C41.8528 92.0066 37.4127 93.3579 32.5479 93.3579C29.9224 93.3579 27.4128 92.856 25.019 91.8522C22.7024 90.7711 20.6175 89.3039 18.7642 87.4507V116.639H0ZM28.1464 78.5319C30.7718 78.5319 33.0112 77.8755 34.8644 76.5628C36.7177 75.25 38.1462 73.3968 39.1501 71.003C40.1539 68.532 40.6559 65.7135 40.6559 62.5475C40.6559 59.3043 40.1539 56.4858 39.1501 54.092C38.1462 51.6982 36.7177 49.845 34.8644 48.5322C33.0112 47.2195 30.7718 46.5631 28.1464 46.5631C26.3703 46.5631 24.6715 46.9106 23.0499 47.6056C21.5055 48.2233 20.077 49.1114 18.7642 50.2697V74.8253C20.077 75.9836 21.5055 76.9103 23.0499 77.6052C24.6715 78.223 26.3703 78.5319 28.1464 78.5319Z" fill="white"/>
</svg>
