<svg width="111" height="40" viewBox="0 0 111 40" fill="none" xmlns="http://www.w3.org/2000/svg">
<g clip-path="url(#clip0_93_780)">
<path d="M20.207 16.4349C19.7389 16.4349 19.2753 16.5271 18.8428 16.7062C18.4102 16.8854 18.0172 17.148 17.6862 17.479C17.3552 17.8101 17.0926 18.2031 16.9134 18.6356C16.7342 19.0681 16.642 19.5317 16.642 19.9999C16.642 20.468 16.7342 20.9316 16.9134 21.3641C17.0926 21.7967 17.3552 22.1897 17.6862 22.5207C18.0172 22.8517 18.4102 23.1143 18.8428 23.2935C19.2753 23.4727 19.7389 23.5649 20.207 23.5649C20.6752 23.5649 21.1388 23.4727 21.5713 23.2935C22.0038 23.1143 22.3968 22.8517 22.7279 22.5207C23.0589 22.1897 23.3215 21.7967 23.5007 21.3641C23.6798 20.9316 23.772 20.468 23.772 19.9999C23.772 19.5317 23.6798 19.0681 23.5007 18.6356C23.3215 18.2031 23.0589 17.8101 22.7279 17.479C22.3968 17.148 22.0038 16.8854 21.5713 16.7062C21.1388 16.5271 20.6752 16.4349 20.207 16.4349ZM10.2204 27.0915L9.4337 26.8915C3.57036 25.4099 0.207031 22.8949 0.207031 19.9932C0.207031 17.0915 3.57036 14.5765 9.4337 13.0949L10.2204 12.8965L10.442 13.6765C11.036 15.7227 11.7957 17.7171 12.7137 19.6399L12.882 19.9949L12.7137 20.3499C11.7942 22.272 11.0344 24.2665 10.442 26.3132L10.2204 27.0915ZM9.0687 14.9165C4.61203 16.1682 1.87703 18.0832 1.87703 19.9932C1.87703 21.9015 4.61203 23.8165 9.0687 25.0699C9.61374 23.3364 10.2718 21.6406 11.0387 19.9932C10.2709 18.3462 9.61284 16.6503 9.0687 14.9165ZM30.1937 27.0915L29.972 26.3099C29.3787 24.2638 28.6183 22.2699 27.6987 20.3482L27.5304 19.9932L27.6987 19.6382C28.618 17.7158 29.3783 15.7214 29.972 13.6749L30.1937 12.8949L30.982 13.0932C36.8437 14.5749 40.207 17.0899 40.207 19.9932C40.207 22.8965 36.8437 25.4099 30.982 26.8915L30.1937 27.0915ZM29.3754 19.9932C30.1754 21.7249 30.837 23.4265 31.3454 25.0699C35.8037 23.8165 38.537 21.9015 38.537 19.9932C38.537 18.0832 35.802 16.1699 31.3454 14.9165C30.8011 16.6502 30.143 18.3461 29.3754 19.9932ZM9.05703 14.9082L8.83536 14.1299C7.18703 8.31986 7.68703 4.15653 10.207 2.7032C12.6787 1.27653 16.647 2.96153 20.8054 7.22986L21.372 7.81153L20.8054 8.3932C19.3278 9.92921 17.9778 11.583 16.7687 13.3382L16.5437 13.6599L16.152 13.6932C14.0252 13.8609 11.9155 14.2009 9.8437 14.7099L9.05703 14.9082ZM12.217 3.8582C11.7704 3.8582 11.3754 3.95486 11.042 4.14653C9.38536 5.10153 9.09203 8.42153 10.2337 12.9015C12.0098 12.5064 13.8097 12.2275 15.622 12.0665C16.6677 10.5797 17.8102 9.16327 19.042 7.82653C16.442 5.29486 13.9804 3.8582 12.217 3.8582ZM28.1987 37.7949C28.197 37.7949 28.197 37.7949 28.1987 37.7949C25.8237 37.7949 22.7737 36.0065 19.6087 32.7565L19.042 32.1749L19.6087 31.5932C21.0859 30.0567 22.4354 28.4023 23.6437 26.6465L23.8687 26.3249L24.2587 26.2915C26.3866 26.1248 28.4975 25.7853 30.5704 25.2765L31.357 25.0782L31.5804 25.8582C33.2254 31.6649 32.727 35.8299 30.207 37.2815C29.5949 37.6276 28.9018 37.8048 28.1987 37.7949ZM21.372 32.1599C23.972 34.6915 26.4337 36.1282 28.197 36.1282C28.642 36.1282 29.0404 36.0315 29.372 35.8399C31.0287 34.8849 31.3237 31.5632 30.1804 27.0832C28.4038 27.4789 26.6033 27.7578 24.7904 27.9182C23.7459 29.4061 22.604 30.8231 21.372 32.1599ZM31.357 14.9082L30.5704 14.7099C28.4977 14.1994 26.3868 13.8594 24.2587 13.6932L23.8687 13.6599L23.6437 13.3382C22.436 11.5825 21.0865 9.92859 19.6087 8.3932L19.042 7.81153L19.6087 7.22986C23.7654 2.9632 27.732 1.2782 30.207 2.7032C32.727 4.15653 33.227 8.31986 31.5804 14.1282L31.357 14.9082ZM24.7904 12.0665C26.6937 12.2399 28.502 12.5215 30.1804 12.9015C31.3237 8.42153 31.0287 5.10153 29.372 4.14653C27.7254 3.19486 24.6304 4.6532 21.372 7.82653C22.6033 9.16333 23.7452 10.5797 24.7904 12.0665ZM12.217 37.7949C11.5134 37.8051 10.8196 37.6279 10.207 37.2815C7.68703 35.8299 7.18703 31.6665 8.83536 25.8582L9.05536 25.0782L9.84203 25.2765C11.767 25.7615 13.8904 26.1032 16.1504 26.2915L16.542 26.3249L16.7654 26.6465C17.9746 28.4021 19.3246 30.0564 20.802 31.5932L21.3687 32.1749L20.802 32.7565C17.6387 36.0065 14.5887 37.7949 12.217 37.7949ZM10.2337 27.0832C9.09036 31.5632 9.38536 34.8849 11.042 35.8399C12.687 36.7782 15.7804 35.3315 19.042 32.1599C17.8107 30.8221 16.6683 29.4052 15.622 27.9182C13.8096 27.7579 12.0096 27.479 10.2337 27.0832ZM20.207 28.1299C18.8354 28.1299 17.4254 28.0699 16.0137 27.9532L15.622 27.9199L15.397 27.5982C14.5985 26.4509 13.8479 25.271 13.147 24.0615C12.4482 22.8511 11.7999 21.6123 11.2037 20.3482L11.0387 19.9932L11.2037 19.6382C11.7998 18.3741 12.4481 17.1352 13.147 15.9249C13.837 14.7315 14.5954 13.5415 15.397 12.3882L15.622 12.0665L16.0137 12.0332C18.8048 11.7965 21.6109 11.7965 24.402 12.0332L24.792 12.0665L25.0154 12.3882C26.614 14.6833 28.0172 17.1085 29.2104 19.6382L29.3787 19.9932L29.2104 20.3482C28.0201 22.8794 26.6167 25.3048 25.0154 27.5982L24.792 27.9199L24.402 27.9532C22.9904 28.0699 21.5787 28.1299 20.207 28.1299ZM16.5454 26.3232C19.012 26.5082 21.402 26.5082 23.8704 26.3232C25.2484 24.3086 26.4719 22.1926 27.5304 19.9932C26.4738 17.7925 25.2496 15.6763 23.8687 13.6632C21.4311 13.4782 18.983 13.4782 16.5454 13.6632C15.1638 15.6759 13.9396 17.7922 12.8837 19.9932C13.9433 22.1923 15.1673 24.3083 16.5454 26.3232Z" fill="#FCFCFC"/>
</g>
<path d="M58.043 26V13.4H61.949C62.753 13.4 63.455 13.556 64.055 13.868C64.655 14.168 65.123 14.588 65.459 15.128C65.795 15.668 65.963 16.304 65.963 17.036C65.963 17.876 65.729 18.596 65.261 19.196C64.793 19.784 64.157 20.198 63.353 20.438L66.179 26H64.649L61.949 20.618H59.429V26H58.043ZM59.429 19.466H61.841C62.669 19.466 63.329 19.25 63.821 18.818C64.325 18.374 64.577 17.786 64.577 17.054C64.577 16.31 64.325 15.716 63.821 15.272C63.329 14.828 62.669 14.606 61.841 14.606H59.429V19.466ZM72.616 26.18C71.776 26.18 71.02 25.982 70.348 25.586C69.676 25.178 69.142 24.632 68.746 23.948C68.362 23.252 68.17 22.472 68.17 21.608C68.17 20.744 68.356 19.97 68.728 19.286C69.1 18.602 69.604 18.062 70.24 17.666C70.888 17.27 71.608 17.072 72.4 17.072C73.228 17.072 73.966 17.27 74.614 17.666C75.262 18.05 75.772 18.578 76.144 19.25C76.516 19.91 76.702 20.66 76.702 21.5V21.896H69.448C69.496 22.496 69.664 23.036 69.952 23.516C70.24 23.984 70.618 24.356 71.086 24.632C71.566 24.896 72.094 25.028 72.67 25.028C73.186 25.028 73.666 24.932 74.11 24.74C74.566 24.536 74.944 24.26 75.244 23.912L76.162 24.722C75.694 25.202 75.16 25.568 74.56 25.82C73.96 26.06 73.312 26.18 72.616 26.18ZM69.484 20.924H75.406C75.334 20.396 75.154 19.928 74.866 19.52C74.59 19.112 74.236 18.794 73.804 18.566C73.384 18.326 72.91 18.206 72.382 18.206C71.89 18.206 71.44 18.32 71.032 18.548C70.624 18.776 70.282 19.094 70.006 19.502C69.742 19.91 69.568 20.384 69.484 20.924ZM82.401 26.18C81.765 26.18 81.195 26.066 80.691 25.838C80.199 25.61 79.815 25.298 79.539 24.902C79.263 24.494 79.125 24.026 79.125 23.498C79.125 22.97 79.263 22.508 79.539 22.112C79.827 21.716 80.223 21.41 80.727 21.194C81.243 20.978 81.837 20.87 82.509 20.87C83.037 20.87 83.529 20.924 83.985 21.032C84.441 21.128 84.873 21.296 85.281 21.536V20.528C85.281 19.748 85.083 19.16 84.687 18.764C84.291 18.368 83.703 18.17 82.923 18.17C82.479 18.17 82.035 18.236 81.591 18.368C81.147 18.488 80.649 18.704 80.097 19.016L79.557 18.026C80.193 17.678 80.799 17.432 81.375 17.288C81.951 17.144 82.521 17.072 83.085 17.072C84.201 17.072 85.059 17.354 85.659 17.918C86.271 18.482 86.577 19.292 86.577 20.348V26H85.281V24.992C84.873 25.4 84.429 25.7 83.949 25.892C83.481 26.084 82.965 26.18 82.401 26.18ZM80.385 23.462C80.385 23.978 80.595 24.392 81.015 24.704C81.435 25.016 81.987 25.172 82.671 25.172C83.187 25.172 83.655 25.094 84.075 24.938C84.507 24.77 84.909 24.506 85.281 24.146V22.454C84.909 22.226 84.513 22.064 84.093 21.968C83.673 21.872 83.211 21.824 82.707 21.824C82.011 21.824 81.447 21.974 81.015 22.274C80.595 22.574 80.385 22.97 80.385 23.462ZM94.1299 26.18C93.3019 26.18 92.5519 25.982 91.8799 25.586C91.2199 25.178 90.6919 24.632 90.2959 23.948C89.9119 23.264 89.7199 22.49 89.7199 21.626C89.7199 20.762 89.9119 19.988 90.2959 19.304C90.6919 18.608 91.2199 18.062 91.8799 17.666C92.5519 17.27 93.3019 17.072 94.1299 17.072C94.9459 17.072 95.6839 17.252 96.3439 17.612C97.0039 17.972 97.5259 18.458 97.9099 19.07L96.8479 19.736C96.5719 19.28 96.1939 18.92 95.7139 18.656C95.2459 18.38 94.7179 18.242 94.1299 18.242C93.5299 18.242 92.9959 18.392 92.5279 18.692C92.0599 18.98 91.6879 19.376 91.4119 19.88C91.1479 20.384 91.0159 20.966 91.0159 21.626C91.0159 22.274 91.1479 22.856 91.4119 23.372C91.6879 23.876 92.0599 24.278 92.5279 24.578C92.9959 24.866 93.5299 25.01 94.1299 25.01C94.7179 25.01 95.2459 24.878 95.7139 24.614C96.1939 24.338 96.5719 23.972 96.8479 23.516L97.9099 24.182C97.5259 24.794 97.0039 25.28 96.3439 25.64C95.6839 26 94.9459 26.18 94.1299 26.18ZM106.219 26.18C105.235 26.18 104.479 25.97 103.951 25.55C103.435 25.118 103.177 24.494 103.177 23.678V18.296H100.171V17.216H103.177V14.804L104.491 14.498V17.216H108.541V18.296H104.491V23.462C104.491 24.014 104.641 24.41 104.941 24.65C105.241 24.89 105.673 25.01 106.237 25.01C106.585 25.01 106.945 24.974 107.317 24.902C107.689 24.83 108.097 24.71 108.541 24.542V25.73C108.145 25.874 107.755 25.982 107.371 26.054C106.987 26.138 106.603 26.18 106.219 26.18Z" fill="#FCFCFC"/>
<defs>
<clipPath id="clip0_93_780">
<rect width="40" height="40" fill="white" transform="translate(0.207031)"/>
</clipPath>
</defs>
</svg>
