<svg width="201" height="34" viewBox="0 0 201 34" fill="none" xmlns="http://www.w3.org/2000/svg">
<g clip-path="url(#clip0_93_873)">
<mask id="mask0_93_873" style="mask-type:luminance" maskUnits="userSpaceOnUse" x="0" y="0" width="55" height="33">
<path d="M0.792969 0.5H54.793V32.9H0.792969V0.5Z" fill="white"/>
</mask>
<g mask="url(#mask0_93_873)">
<path fill-rule="evenodd" clip-rule="evenodd" d="M27.793 0.5C20.593 0.5 16.093 4.1 14.293 11.3C16.993 7.7 20.143 6.35 23.743 7.25C25.797 7.763 27.265 9.254 28.89 10.903C31.537 13.59 34.601 16.7 41.293 16.7C48.493 16.7 52.993 13.1 54.793 5.9C52.093 9.5 48.943 10.85 45.343 9.95C43.289 9.437 41.821 7.946 40.196 6.297C37.549 3.61 34.485 0.5 27.793 0.5ZM14.293 16.7C7.09297 16.7 2.59297 20.3 0.792969 27.5C3.49297 23.9 6.64297 22.55 10.243 23.45C12.297 23.964 13.765 25.454 15.39 27.103C18.037 29.79 21.101 32.9 27.793 32.9C34.993 32.9 39.493 29.3 41.293 22.1C38.593 25.7 35.443 27.05 31.843 26.15C29.789 25.637 28.321 24.146 26.696 22.497C24.049 19.81 20.985 16.7 14.293 16.7Z" fill="#FCFCFC"/>
</g>
</g>
<path d="M75.509 23V11.606H71.333V10.4H81.053V11.606H76.895V23H75.509ZM86.1939 23.18C85.5579 23.18 84.9879 23.066 84.4839 22.838C83.9919 22.61 83.6079 22.298 83.3319 21.902C83.0559 21.494 82.9179 21.026 82.9179 20.498C82.9179 19.97 83.0559 19.508 83.3319 19.112C83.6199 18.716 84.0159 18.41 84.5199 18.194C85.0359 17.978 85.6299 17.87 86.3019 17.87C86.8299 17.87 87.3219 17.924 87.7779 18.032C88.2339 18.128 88.6659 18.296 89.0739 18.536V17.528C89.0739 16.748 88.8759 16.16 88.4799 15.764C88.0839 15.368 87.4959 15.17 86.7159 15.17C86.2719 15.17 85.8279 15.236 85.3839 15.368C84.9399 15.488 84.4419 15.704 83.8899 16.016L83.3499 15.026C83.9859 14.678 84.5919 14.432 85.1679 14.288C85.7439 14.144 86.3139 14.072 86.8779 14.072C87.9939 14.072 88.8519 14.354 89.4519 14.918C90.0639 15.482 90.3699 16.292 90.3699 17.348V23H89.0739V21.992C88.6659 22.4 88.2219 22.7 87.7419 22.892C87.2739 23.084 86.7579 23.18 86.1939 23.18ZM84.1779 20.462C84.1779 20.978 84.3879 21.392 84.8079 21.704C85.2279 22.016 85.7799 22.172 86.4639 22.172C86.9799 22.172 87.4479 22.094 87.8679 21.938C88.2999 21.77 88.7019 21.506 89.0739 21.146V19.454C88.7019 19.226 88.3059 19.064 87.8859 18.968C87.4659 18.872 87.0039 18.824 86.4999 18.824C85.8039 18.824 85.2399 18.974 84.8079 19.274C84.3879 19.574 84.1779 19.97 84.1779 20.462ZM97.6529 12.128C97.3409 12.128 97.0709 12.02 96.8429 11.804C96.6269 11.576 96.5189 11.312 96.5189 11.012C96.5189 10.7 96.6269 10.436 96.8429 10.22C97.0709 10.004 97.3409 9.896 97.6529 9.896C97.9649 9.896 98.2289 10.004 98.4449 10.22C98.6729 10.436 98.7869 10.7 98.7869 11.012C98.7869 11.312 98.6729 11.576 98.4449 11.804C98.2289 12.02 97.9649 12.128 97.6529 12.128ZM99.8489 23.18C98.9249 23.18 98.2169 22.964 97.7249 22.532C97.2329 22.1 96.9869 21.452 96.9869 20.588V15.296H93.7289V14.216H98.3009V20.462C98.3009 21.014 98.4329 21.41 98.6969 21.65C98.9609 21.89 99.3509 22.01 99.8669 22.01C100.179 22.01 100.497 21.98 100.821 21.92C101.145 21.848 101.505 21.734 101.901 21.578V22.766C101.553 22.886 101.205 22.982 100.857 23.054C100.521 23.138 100.185 23.18 99.8489 23.18ZM110.642 23.18C109.718 23.18 109.01 22.964 108.518 22.532C108.026 22.1 107.78 21.452 107.78 20.588V10.994H104.522V9.914H109.094V20.462C109.094 21.014 109.226 21.41 109.49 21.65C109.754 21.89 110.144 22.01 110.66 22.01C110.972 22.01 111.29 21.98 111.614 21.92C111.938 21.848 112.298 21.734 112.694 21.578V22.766C112.346 22.886 111.998 22.982 111.65 23.054C111.314 23.138 110.978 23.18 110.642 23.18ZM116.395 23L114.649 14.216H115.819L117.061 21.182L118.825 14.216H119.995L121.777 21.182L123.001 14.216H124.081L122.335 23H121.147L119.383 15.926L117.619 23H116.395ZM130.032 12.128C129.72 12.128 129.45 12.02 129.222 11.804C129.006 11.576 128.898 11.312 128.898 11.012C128.898 10.7 129.006 10.436 129.222 10.22C129.45 10.004 129.72 9.896 130.032 9.896C130.344 9.896 130.608 10.004 130.824 10.22C131.052 10.436 131.166 10.7 131.166 11.012C131.166 11.312 131.052 11.576 130.824 11.804C130.608 12.02 130.344 12.128 130.032 12.128ZM132.228 23.18C131.304 23.18 130.596 22.964 130.104 22.532C129.612 22.1 129.366 21.452 129.366 20.588V15.296H126.108V14.216H130.68V20.462C130.68 21.014 130.812 21.41 131.076 21.65C131.34 21.89 131.73 22.01 132.246 22.01C132.558 22.01 132.876 21.98 133.2 21.92C133.524 21.848 133.884 21.734 134.28 21.578V22.766C133.932 22.886 133.584 22.982 133.236 23.054C132.9 23.138 132.564 23.18 132.228 23.18ZM137.333 23V14.216H138.647V15.638C139.319 14.594 140.249 14.072 141.437 14.072C142.073 14.072 142.625 14.21 143.093 14.486C143.573 14.75 143.945 15.128 144.209 15.62C144.485 16.1 144.623 16.664 144.623 17.312V23H143.309V17.69C143.309 16.91 143.093 16.298 142.661 15.854C142.241 15.398 141.671 15.17 140.951 15.17C140.471 15.17 140.033 15.284 139.637 15.512C139.241 15.74 138.911 16.076 138.647 16.52V23H137.333ZM151.384 23.126C150.628 23.126 149.944 22.928 149.332 22.532C148.72 22.124 148.234 21.584 147.874 20.912C147.514 20.228 147.334 19.466 147.334 18.626C147.334 17.774 147.514 17.012 147.874 16.34C148.246 15.656 148.744 15.116 149.368 14.72C149.992 14.312 150.688 14.108 151.456 14.108C151.996 14.108 152.5 14.216 152.968 14.432C153.436 14.636 153.844 14.936 154.192 15.332V10.004L155.506 9.734V23H154.192V21.83C153.856 22.25 153.448 22.574 152.968 22.802C152.488 23.018 151.96 23.126 151.384 23.126ZM151.708 21.974C152.224 21.974 152.698 21.872 153.13 21.668C153.562 21.464 153.916 21.176 154.192 20.804V16.448C153.904 16.076 153.538 15.788 153.094 15.584C152.662 15.368 152.2 15.26 151.708 15.26C151.12 15.26 150.592 15.404 150.124 15.692C149.668 15.98 149.302 16.376 149.026 16.88C148.762 17.384 148.63 17.96 148.63 18.608C148.63 19.244 148.762 19.82 149.026 20.336C149.302 20.84 149.668 21.242 150.124 21.542C150.592 21.83 151.12 21.974 151.708 21.974ZM173.438 23.198C172.598 23.198 171.812 22.946 171.08 22.442C170.36 21.938 169.778 21.206 169.334 20.246C168.89 19.274 168.668 18.092 168.668 16.7C168.668 15.308 168.89 14.132 169.334 13.172C169.778 12.2 170.36 11.462 171.08 10.958C171.812 10.454 172.598 10.202 173.438 10.202C174.17 10.202 174.836 10.358 175.436 10.67C176.036 10.97 176.552 11.408 176.984 11.984C177.416 12.56 177.746 13.256 177.974 14.072L176.66 14.486C176.42 13.514 176.006 12.77 175.418 12.254C174.842 11.726 174.182 11.462 173.438 11.462C172.814 11.462 172.244 11.672 171.728 12.092C171.224 12.5 170.822 13.094 170.522 13.874C170.222 14.654 170.072 15.596 170.072 16.7C170.072 17.804 170.222 18.746 170.522 19.526C170.822 20.306 171.224 20.906 171.728 21.326C172.244 21.734 172.814 21.938 173.438 21.938C174.182 21.938 174.842 21.68 175.418 21.164C176.006 20.636 176.42 19.886 176.66 18.914L177.974 19.328C177.746 20.132 177.416 20.828 176.984 21.416C176.552 21.992 176.036 22.436 175.436 22.748C174.836 23.048 174.17 23.198 173.438 23.198ZM184.303 23.198C183.463 23.198 182.671 23.042 181.927 22.73C181.183 22.406 180.433 21.902 179.677 21.218L180.505 20.174C181.249 20.846 181.909 21.32 182.485 21.596C183.061 21.872 183.679 22.01 184.339 22.01C184.891 22.01 185.377 21.908 185.797 21.704C186.229 21.488 186.565 21.2 186.805 20.84C187.057 20.468 187.183 20.054 187.183 19.598C187.183 19.082 187.051 18.674 186.787 18.374C186.535 18.062 186.199 17.822 185.779 17.654C185.359 17.474 184.897 17.324 184.393 17.204C183.889 17.072 183.379 16.934 182.863 16.79C182.359 16.646 181.897 16.454 181.477 16.214C181.057 15.962 180.715 15.626 180.451 15.206C180.199 14.786 180.073 14.24 180.073 13.568C180.073 12.908 180.235 12.326 180.559 11.822C180.895 11.318 181.357 10.922 181.945 10.634C182.545 10.346 183.229 10.202 183.997 10.202C184.765 10.202 185.497 10.328 186.193 10.58C186.901 10.82 187.651 11.222 188.443 11.786L187.723 12.866C187.063 12.362 186.427 11.99 185.815 11.75C185.203 11.498 184.603 11.372 184.015 11.372C183.247 11.372 182.617 11.57 182.125 11.966C181.645 12.35 181.405 12.836 181.405 13.424C181.405 13.952 181.531 14.372 181.783 14.684C182.047 14.996 182.389 15.242 182.809 15.422C183.241 15.602 183.709 15.758 184.213 15.89C184.729 16.01 185.239 16.142 185.743 16.286C186.259 16.43 186.727 16.628 187.147 16.88C187.579 17.12 187.921 17.45 188.173 17.87C188.437 18.29 188.569 18.842 188.569 19.526C188.569 20.222 188.383 20.852 188.011 21.416C187.651 21.968 187.147 22.406 186.499 22.73C185.863 23.042 185.131 23.198 184.303 23.198ZM195.096 23.198C194.256 23.198 193.464 23.042 192.72 22.73C191.976 22.406 191.226 21.902 190.47 21.218L191.298 20.174C192.042 20.846 192.702 21.32 193.278 21.596C193.854 21.872 194.472 22.01 195.132 22.01C195.684 22.01 196.17 21.908 196.59 21.704C197.022 21.488 197.358 21.2 197.598 20.84C197.85 20.468 197.976 20.054 197.976 19.598C197.976 19.082 197.844 18.674 197.58 18.374C197.328 18.062 196.992 17.822 196.572 17.654C196.152 17.474 195.69 17.324 195.186 17.204C194.682 17.072 194.172 16.934 193.656 16.79C193.152 16.646 192.69 16.454 192.27 16.214C191.85 15.962 191.508 15.626 191.244 15.206C190.992 14.786 190.866 14.24 190.866 13.568C190.866 12.908 191.028 12.326 191.352 11.822C191.688 11.318 192.15 10.922 192.738 10.634C193.338 10.346 194.022 10.202 194.79 10.202C195.558 10.202 196.29 10.328 196.986 10.58C197.694 10.82 198.444 11.222 199.236 11.786L198.516 12.866C197.856 12.362 197.22 11.99 196.608 11.75C195.996 11.498 195.396 11.372 194.808 11.372C194.04 11.372 193.41 11.57 192.918 11.966C192.438 12.35 192.198 12.836 192.198 13.424C192.198 13.952 192.324 14.372 192.576 14.684C192.84 14.996 193.182 15.242 193.602 15.422C194.034 15.602 194.502 15.758 195.006 15.89C195.522 16.01 196.032 16.142 196.536 16.286C197.052 16.43 197.52 16.628 197.94 16.88C198.372 17.12 198.714 17.45 198.966 17.87C199.23 18.29 199.362 18.842 199.362 19.526C199.362 20.222 199.176 20.852 198.804 21.416C198.444 21.968 197.94 22.406 197.292 22.73C196.656 23.042 195.924 23.198 195.096 23.198Z" fill="#FCFCFC"/>
<defs>
<clipPath id="clip0_93_873">
<rect width="54" height="33" fill="white" transform="translate(0.792969 0.5)"/>
</clipPath>
</defs>
</svg>
