<svg width="165" height="40" viewBox="0 0 165 40" fill="none" xmlns="http://www.w3.org/2000/svg">
<g clip-path="url(#clip0_93_1629)">
<path fill-rule="evenodd" clip-rule="evenodd" d="M1.66789 0.741211H37.7024C38.5093 0.741211 39.1633 1.38791 39.1633 2.18566V37.8153C39.1633 38.6131 38.5093 39.2597 37.7024 39.2597H1.66789C0.86108 39.2597 0.207031 38.6131 0.207031 37.8153V2.18566C0.207031 1.38791 0.86108 0.741211 1.66789 0.741211ZM21.8626 21.2337V18.0745H7.99828V21.2337H12.9481V35.2997H16.8885V21.2337H21.8626ZM23.4335 34.9283C24.069 35.2486 24.8205 35.4889 25.6881 35.6491C26.5558 35.8092 27.4701 35.8894 28.4315 35.8894C29.3684 35.8894 30.2583 35.8012 31.1015 35.6251C31.9447 35.4489 32.6839 35.1585 33.3193 34.7541C33.9547 34.3497 34.4578 33.8212 34.8285 33.1685C35.1992 32.5157 35.3845 31.7089 35.3845 30.7479C35.3845 30.0511 35.2786 29.4406 35.0667 28.916C34.855 28.3914 34.5495 27.9249 34.1503 27.5165C33.7512 27.108 33.2725 26.7417 32.7144 26.4174C32.1564 26.0931 31.5272 25.7867 30.8266 25.4984C30.3133 25.2901 29.853 25.0879 29.4457 24.8917C29.0383 24.6956 28.6921 24.4953 28.407 24.2911C28.1218 24.0868 27.902 23.8707 27.7472 23.6424C27.5924 23.4142 27.515 23.1559 27.515 22.8676C27.515 22.6033 27.5842 22.3651 27.7227 22.1529C27.8613 21.9406 28.0567 21.7584 28.3093 21.6062C28.5618 21.4541 28.8713 21.336 29.238 21.2519C29.6045 21.1679 30.0119 21.1258 30.4599 21.1258C30.7858 21.1258 31.13 21.1498 31.4925 21.1978C31.855 21.246 32.2196 21.32 32.5861 21.42C32.9528 21.5202 33.3093 21.6462 33.6555 21.7985C34.0017 21.9507 34.3214 22.1268 34.6147 22.327V18.7353C34.0199 18.511 33.3703 18.3448 32.6655 18.2368C31.961 18.1286 31.1524 18.0745 30.2399 18.0745C29.3113 18.0745 28.4315 18.1726 27.6005 18.3689C26.7695 18.5651 26.0384 18.8714 25.407 19.2879C24.7756 19.7043 24.2767 20.2348 23.9101 20.8794C23.5435 21.5242 23.3602 22.295 23.3602 23.1919C23.3602 24.3372 23.6962 25.3142 24.3684 26.123C25.0405 26.9319 26.0608 27.6166 27.4294 28.1772C27.9672 28.3935 28.4681 28.6057 28.9325 28.814C29.3968 29.0221 29.798 29.2384 30.1361 29.4625C30.4741 29.6868 30.741 29.931 30.9365 30.1953C31.1321 30.4596 31.2298 30.7599 31.2298 31.0963C31.2298 31.3446 31.1687 31.5748 31.0464 31.787C30.9242 31.9993 30.7389 32.1834 30.4904 32.3396C30.242 32.4957 29.9325 32.618 29.5618 32.706C29.1912 32.7941 28.7573 32.8381 28.2604 32.8381C27.4131 32.8381 26.574 32.692 25.743 32.3997C24.9122 32.1074 24.1423 31.6689 23.4335 31.0843V34.9283Z" fill="#FCFCFC"/>
</g>
<path d="M60.923 26V14.606H56.747V13.4H66.467V14.606H62.309V26H60.923ZM69.322 29.942C69.13 29.942 68.926 29.93 68.71 29.906C68.506 29.882 68.302 29.846 68.098 29.798V28.556C68.326 28.604 68.524 28.64 68.692 28.664C68.872 28.7 69.034 28.718 69.178 28.718C69.586 28.718 69.928 28.634 70.204 28.466C70.48 28.298 70.702 28.01 70.87 27.602L71.536 26.054L67.972 17.216H69.412L72.292 24.488L75.28 17.216H76.702L72.076 27.998C71.872 28.466 71.644 28.844 71.392 29.132C71.152 29.42 70.864 29.624 70.528 29.744C70.204 29.876 69.802 29.942 69.322 29.942ZM79.413 29.762V17.216H80.709V18.476C81.045 18.032 81.453 17.696 81.933 17.468C82.425 17.228 82.965 17.108 83.553 17.108C84.321 17.108 85.005 17.312 85.605 17.72C86.217 18.116 86.703 18.656 87.063 19.34C87.423 20.012 87.603 20.768 87.603 21.608C87.603 22.448 87.417 23.21 87.045 23.894C86.685 24.578 86.193 25.124 85.569 25.532C84.957 25.928 84.261 26.126 83.481 26.126C82.929 26.126 82.419 26.024 81.951 25.82C81.483 25.604 81.075 25.298 80.727 24.902V29.762H79.413ZM83.229 24.992C83.817 24.992 84.339 24.848 84.795 24.56C85.263 24.26 85.629 23.858 85.893 23.354C86.169 22.838 86.307 22.262 86.307 21.626C86.307 20.978 86.169 20.402 85.893 19.898C85.629 19.394 85.263 18.998 84.795 18.71C84.339 18.41 83.817 18.26 83.229 18.26C82.713 18.26 82.233 18.368 81.789 18.584C81.357 18.788 81.003 19.082 80.727 19.466V23.768C81.015 24.152 81.375 24.452 81.807 24.668C82.251 24.884 82.725 24.992 83.229 24.992ZM94.2019 26.18C93.3619 26.18 92.6059 25.982 91.9339 25.586C91.2619 25.178 90.7279 24.632 90.3319 23.948C89.9479 23.252 89.7559 22.472 89.7559 21.608C89.7559 20.744 89.9419 19.97 90.3139 19.286C90.6859 18.602 91.1899 18.062 91.8259 17.666C92.4739 17.27 93.1939 17.072 93.9859 17.072C94.8139 17.072 95.5519 17.27 96.1999 17.666C96.8479 18.05 97.3579 18.578 97.7299 19.25C98.1019 19.91 98.2879 20.66 98.2879 21.5V21.896H91.0339C91.0819 22.496 91.2499 23.036 91.5379 23.516C91.8259 23.984 92.2039 24.356 92.6719 24.632C93.1519 24.896 93.6799 25.028 94.2559 25.028C94.7719 25.028 95.2519 24.932 95.6959 24.74C96.1519 24.536 96.5299 24.26 96.8299 23.912L97.7479 24.722C97.2799 25.202 96.7459 25.568 96.1459 25.82C95.5459 26.06 94.8979 26.18 94.2019 26.18ZM91.0699 20.924H96.9919C96.9199 20.396 96.7399 19.928 96.4519 19.52C96.1759 19.112 95.8219 18.794 95.3899 18.566C94.9699 18.326 94.4959 18.206 93.9679 18.206C93.4759 18.206 93.0259 18.32 92.6179 18.548C92.2099 18.776 91.8679 19.094 91.5919 19.502C91.3279 19.91 91.1539 20.384 91.0699 20.924ZM104.689 26.18C103.909 26.18 103.183 26.078 102.511 25.874C101.839 25.658 101.275 25.328 100.819 24.884L101.521 23.966C102.085 24.374 102.619 24.662 103.123 24.83C103.627 24.986 104.137 25.064 104.653 25.064C105.385 25.064 105.985 24.92 106.453 24.632C106.933 24.344 107.173 23.978 107.173 23.534C107.173 23.186 107.059 22.922 106.831 22.742C106.615 22.55 106.327 22.412 105.967 22.328C105.607 22.244 105.205 22.178 104.761 22.13C104.329 22.082 103.891 22.022 103.447 21.95C103.015 21.866 102.619 21.746 102.259 21.59C101.899 21.434 101.605 21.206 101.377 20.906C101.161 20.594 101.053 20.18 101.053 19.664C101.053 19.148 101.197 18.698 101.485 18.314C101.785 17.93 102.199 17.63 102.727 17.414C103.255 17.186 103.855 17.072 104.527 17.072C105.187 17.072 105.811 17.156 106.399 17.324C106.999 17.48 107.593 17.762 108.181 18.17L107.533 19.124C107.041 18.776 106.537 18.536 106.021 18.404C105.517 18.26 105.001 18.188 104.473 18.188C103.813 18.188 103.279 18.314 102.871 18.566C102.463 18.818 102.259 19.154 102.259 19.574C102.259 19.91 102.367 20.168 102.583 20.348C102.811 20.528 103.105 20.66 103.465 20.744C103.837 20.828 104.239 20.9 104.671 20.96C105.115 21.008 105.553 21.074 105.985 21.158C106.429 21.23 106.831 21.35 107.191 21.518C107.563 21.674 107.857 21.908 108.073 22.22C108.301 22.52 108.415 22.934 108.415 23.462C108.415 23.966 108.253 24.428 107.929 24.848C107.605 25.256 107.161 25.58 106.597 25.82C106.033 26.06 105.397 26.18 104.689 26.18ZM115.716 26.18C114.888 26.18 114.138 25.982 113.466 25.586C112.806 25.178 112.278 24.632 111.882 23.948C111.498 23.264 111.306 22.49 111.306 21.626C111.306 20.762 111.498 19.988 111.882 19.304C112.278 18.608 112.806 18.062 113.466 17.666C114.138 17.27 114.888 17.072 115.716 17.072C116.532 17.072 117.27 17.252 117.93 17.612C118.59 17.972 119.112 18.458 119.496 19.07L118.434 19.736C118.158 19.28 117.78 18.92 117.3 18.656C116.832 18.38 116.304 18.242 115.716 18.242C115.116 18.242 114.582 18.392 114.114 18.692C113.646 18.98 113.274 19.376 112.998 19.88C112.734 20.384 112.602 20.966 112.602 21.626C112.602 22.274 112.734 22.856 112.998 23.372C113.274 23.876 113.646 24.278 114.114 24.578C114.582 24.866 115.116 25.01 115.716 25.01C116.304 25.01 116.832 24.878 117.3 24.614C117.78 24.338 118.158 23.972 118.434 23.516L119.496 24.182C119.112 24.794 118.59 25.28 117.93 25.64C117.27 26 116.532 26.18 115.716 26.18ZM122.639 26V24.92H125.051V18.296H122.639V17.216H126.365V19.178C126.629 18.506 127.025 17.99 127.553 17.63C128.081 17.258 128.693 17.072 129.389 17.072C129.665 17.072 129.911 17.096 130.127 17.144C130.343 17.18 130.601 17.246 130.901 17.342V18.548C130.601 18.452 130.313 18.374 130.037 18.314C129.773 18.254 129.509 18.224 129.245 18.224C128.597 18.224 128.021 18.392 127.517 18.728C127.013 19.064 126.629 19.544 126.365 20.168V24.92H128.921V26H122.639ZM137.032 15.128C136.72 15.128 136.45 15.02 136.222 14.804C136.006 14.576 135.898 14.312 135.898 14.012C135.898 13.7 136.006 13.436 136.222 13.22C136.45 13.004 136.72 12.896 137.032 12.896C137.344 12.896 137.608 13.004 137.824 13.22C138.052 13.436 138.166 13.7 138.166 14.012C138.166 14.312 138.052 14.576 137.824 14.804C137.608 15.02 137.344 15.128 137.032 15.128ZM139.228 26.18C138.304 26.18 137.596 25.964 137.104 25.532C136.612 25.1 136.366 24.452 136.366 23.588V18.296H133.108V17.216H137.68V23.462C137.68 24.014 137.812 24.41 138.076 24.65C138.34 24.89 138.73 25.01 139.246 25.01C139.558 25.01 139.876 24.98 140.2 24.92C140.524 24.848 140.884 24.734 141.28 24.578V25.766C140.932 25.886 140.584 25.982 140.236 26.054C139.9 26.138 139.564 26.18 139.228 26.18ZM144.171 29.762V17.216H145.467V18.476C145.803 18.032 146.211 17.696 146.691 17.468C147.183 17.228 147.723 17.108 148.311 17.108C149.079 17.108 149.763 17.312 150.363 17.72C150.975 18.116 151.461 18.656 151.821 19.34C152.181 20.012 152.361 20.768 152.361 21.608C152.361 22.448 152.175 23.21 151.803 23.894C151.443 24.578 150.951 25.124 150.327 25.532C149.715 25.928 149.019 26.126 148.239 26.126C147.687 26.126 147.177 26.024 146.709 25.82C146.241 25.604 145.833 25.298 145.485 24.902V29.762H144.171ZM147.987 24.992C148.575 24.992 149.097 24.848 149.553 24.56C150.021 24.26 150.387 23.858 150.651 23.354C150.927 22.838 151.065 22.262 151.065 21.626C151.065 20.978 150.927 20.402 150.651 19.898C150.387 19.394 150.021 18.998 149.553 18.71C149.097 18.41 148.575 18.26 147.987 18.26C147.471 18.26 146.991 18.368 146.547 18.584C146.115 18.788 145.761 19.082 145.485 19.466V23.768C145.773 24.152 146.133 24.452 146.565 24.668C147.009 24.884 147.483 24.992 147.987 24.992ZM160.184 26.18C159.2 26.18 158.444 25.97 157.916 25.55C157.4 25.118 157.142 24.494 157.142 23.678V18.296H154.136V17.216H157.142V14.804L158.456 14.498V17.216H162.506V18.296H158.456V23.462C158.456 24.014 158.606 24.41 158.906 24.65C159.206 24.89 159.638 25.01 160.202 25.01C160.55 25.01 160.91 24.974 161.282 24.902C161.654 24.83 162.062 24.71 162.506 24.542V25.73C162.11 25.874 161.72 25.982 161.336 26.054C160.952 26.138 160.568 26.18 160.184 26.18Z" fill="#FCFCFC"/>
<defs>
<clipPath id="clip0_93_1629">
<rect width="40" height="38.5185" fill="white" transform="translate(0.207031 0.741211)"/>
</clipPath>
</defs>
</svg>
