<svg width="200" height="40" viewBox="0 0 200 40" fill="none" xmlns="http://www.w3.org/2000/svg">
<path d="M103.041 12.04C103.042 12.3136 102.988 12.5845 102.884 12.8374C102.779 13.0902 102.626 13.3199 102.432 13.5134C102.239 13.7068 102.009 13.8601 101.756 13.9646C101.504 14.069 101.233 14.1225 100.959 14.122C100.685 14.1227 100.414 14.0693 100.161 13.9649C99.9084 13.8605 99.6785 13.7072 99.485 13.5137C99.2914 13.3203 99.138 13.0905 99.0335 12.8376C98.929 12.5847 98.8755 12.3136 98.876 12.04C98.876 10.887 99.773 9.958 100.959 9.958C102.144 9.99 103.041 10.918 103.041 12.04ZM94.456 16.236V16.749C94.456 16.749 93.463 15.468 91.349 15.468C87.857 15.468 85.135 18.126 85.135 21.81C85.135 25.462 87.825 28.152 91.349 28.152C93.495 28.152 94.456 26.839 94.456 26.839V27.383C94.456 27.64 94.648 27.832 94.905 27.832H97.499V15.788H94.905C94.7868 15.7903 94.6741 15.8382 94.5904 15.9217C94.5067 16.0052 94.4586 16.1178 94.456 16.236ZM94.456 23.956C93.976 24.661 93.015 25.269 91.861 25.269C89.811 25.269 88.241 23.988 88.241 21.809C88.241 19.632 89.811 18.35 91.861 18.35C92.983 18.35 94.008 18.991 94.456 19.664V23.956ZM99.421 15.788H102.496V27.832H99.421V15.788ZM145.355 15.468C143.241 15.468 142.248 16.748 142.248 16.748V9.99H139.173V27.832H141.767C141.885 27.8297 141.998 27.7817 142.082 27.6979C142.166 27.6142 142.214 27.5014 142.216 27.383V26.839C142.216 26.839 143.209 28.152 145.323 28.152C148.814 28.152 151.537 25.462 151.537 21.81C151.537 18.158 148.814 15.468 145.355 15.468ZM144.843 25.238C143.657 25.238 142.728 24.628 142.248 23.924V19.632C142.728 18.991 143.753 18.318 144.843 18.318C146.893 18.318 148.462 19.6 148.462 21.778C148.462 23.956 146.893 25.238 144.843 25.238ZM137.571 20.688V27.864H134.496V21.04C134.496 19.054 133.856 18.253 132.126 18.253C131.197 18.253 130.236 18.733 129.627 19.438V27.831H126.552V15.788H128.987C129.243 15.788 129.435 16.012 129.435 16.236V16.749C130.332 15.819 131.517 15.468 132.702 15.468C134.048 15.468 135.169 15.852 136.066 16.621C137.155 17.518 137.571 18.67 137.571 20.688ZM119.089 15.468C116.975 15.468 115.982 16.748 115.982 16.748V9.99H112.907V27.832H115.501C115.619 27.8295 115.732 27.7813 115.816 27.6977C115.899 27.614 115.947 27.5013 115.95 27.383V26.839C115.95 26.839 116.943 28.152 119.057 28.152C122.548 28.152 125.271 25.462 125.271 21.81C125.303 18.158 122.58 15.468 119.089 15.468ZM118.576 25.238C117.391 25.238 116.462 24.628 115.982 23.924V19.632C116.462 18.991 117.487 18.318 118.576 18.318C120.626 18.318 122.196 19.6 122.196 21.778C122.196 23.956 120.626 25.238 118.576 25.238ZM110.248 15.468C111.177 15.468 111.657 15.628 111.657 15.628V18.478C111.657 18.478 109.095 17.614 107.493 19.439V27.864H104.418V15.788H107.013C107.269 15.788 107.461 16.012 107.461 16.236V16.749C108.038 16.076 109.287 15.468 110.248 15.468ZM78.312 26.742C78.152 26.357 77.992 25.941 77.832 25.589C77.575 25.012 77.319 24.468 77.095 23.955L77.063 23.923C74.8197 19.0405 72.459 14.2127 69.983 9.444L69.888 9.252C69.631 8.772 69.375 8.259 69.118 7.747C68.798 7.17 68.478 6.562 67.966 5.985C66.94 4.705 65.467 4 63.898 4C62.296 4 60.854 4.705 59.798 5.922C59.317 6.499 58.965 7.107 58.644 7.684C58.3945 8.18897 58.1385 8.69068 57.876 9.189L57.779 9.381C55.313 14.186 52.911 19.055 50.7 23.86L50.668 23.924C50.444 24.436 50.188 24.981 49.932 25.558C49.772 25.91 49.612 26.294 49.452 26.711C49.035 27.896 48.907 29.017 49.067 30.171C49.2388 31.3427 49.7132 32.4494 50.4435 33.3816C51.1737 34.3139 52.1345 35.0396 53.231 35.487C54.0524 35.8319 54.9352 36.0065 55.826 36C57.2468 35.9608 58.6349 35.5643 59.862 34.847C61.175 34.11 62.424 33.053 63.834 31.515C65.243 33.053 66.524 34.11 67.806 34.847C69.0331 35.5643 70.4212 35.9608 71.842 36C72.738 36 73.635 35.84 74.436 35.488C76.678 34.591 78.248 32.54 78.6 30.17C78.857 29.049 78.728 27.927 78.312 26.742ZM63.865 28.407C62.135 26.229 61.015 24.179 60.63 22.449C60.47 21.713 60.438 21.072 60.534 20.496C60.598 19.983 60.79 19.535 61.047 19.15C61.655 18.285 62.68 17.74 63.866 17.74C65.051 17.74 66.108 18.253 66.684 19.15C66.941 19.535 67.133 19.983 67.197 20.496C67.293 21.072 67.261 21.745 67.101 22.449C66.716 24.147 65.594 26.197 63.865 28.407ZM76.646 29.913C76.5307 30.7382 76.2007 31.5187 75.6892 32.1764C75.1777 32.8341 74.5024 33.3461 73.731 33.661C72.9605 33.9745 72.1224 34.0847 71.297 33.981C70.497 33.885 69.695 33.629 68.863 33.148C67.709 32.508 66.556 31.515 65.211 30.041C67.325 27.446 68.606 25.076 69.087 22.962C69.2952 22.0701 69.3494 21.1491 69.247 20.239C69.1283 19.4566 68.8324 18.7117 68.382 18.061C67.389 16.62 65.723 15.787 63.865 15.787C62.008 15.787 60.342 16.652 59.349 18.061C58.8986 18.7117 58.6028 19.4566 58.484 20.239C58.3486 21.148 58.4031 22.0751 58.644 22.962C59.124 25.076 60.438 27.479 62.52 30.073C61.207 31.547 60.022 32.54 58.868 33.18C58.036 33.66 57.235 33.917 56.434 34.013C55.6087 34.1052 54.7734 33.9954 54 33.693C53.2286 33.3781 52.5534 32.8661 52.0418 32.2084C51.5303 31.5507 51.2003 30.7702 51.085 29.945C50.9792 29.101 51.078 28.2438 51.373 27.446C51.469 27.126 51.629 26.806 51.79 26.421C52.014 25.909 52.27 25.364 52.526 24.82L52.558 24.756C54.768 19.983 57.138 15.114 59.605 10.373L59.701 10.181C59.958 9.701 60.214 9.188 60.471 8.708C60.7123 8.20392 61.0131 7.73055 61.367 7.298C62.04 6.53 62.937 6.113 63.93 6.113C64.923 6.113 65.82 6.53 66.492 7.298C66.845 7.715 67.132 8.195 67.389 8.708C67.645 9.188 67.902 9.701 68.158 10.181L68.254 10.373C70.6828 15.1334 73.0216 19.9393 75.269 24.788V24.82C75.525 25.332 75.749 25.909 76.006 26.421C76.166 26.806 76.326 27.126 76.422 27.446C76.678 28.279 76.774 29.08 76.646 29.913Z" fill="black"/>
</svg>
