<svg width="200" height="40" viewBox="0 0 200 40" fill="none" xmlns="http://www.w3.org/2000/svg">
<g clip-path="url(#clip0_600_118)">
<path fill-rule="evenodd" clip-rule="evenodd" d="M111.58 33.91C106.18 37.9 98.37 40 91.64 40C82.6447 40.0483 73.9548 36.7392 67.27 30.72C66.77 30.27 67.22 29.64 67.83 30C75.2523 34.2386 83.6528 36.4654 92.2 36.46C98.18 36.46 104.75 35.22 110.8 32.66C111.7 32.27 112.47 33.26 111.58 33.91Z" fill="black"/>
<path fill-rule="evenodd" clip-rule="evenodd" d="M113.82 31.36C113.13 30.48 109.26 30.94 107.52 31.15C107 31.21 106.92 30.75 107.39 30.42C110.48 28.25 115.54 28.88 116.12 29.6C116.72 30.34 115.97 35.4 113.08 37.81C112.63 38.19 112.21 37.99 112.41 37.5C113.06 35.87 114.51 32.24 113.82 31.36Z" fill="black"/>
<path fill-rule="evenodd" clip-rule="evenodd" d="M107.65 15.1301V13.0301C107.65 12.7001 107.89 12.4901 108.18 12.4901H117.63C117.93 12.4901 118.17 12.7101 118.17 13.0201V14.8201C118.17 15.1201 117.91 15.5201 117.46 16.1501L112.56 23.1201C114.38 23.0801 116.3 23.3501 117.96 24.2801C118.32 24.4801 118.43 24.7901 118.46 25.1001V27.3401C118.46 27.6501 118.12 28.0101 117.76 27.8201C116.215 27.0277 114.504 26.616 112.768 26.6195C111.032 26.623 109.321 27.0415 107.78 27.8401C107.45 28.0101 107.11 27.6601 107.11 27.3501V25.2201C107.11 24.8801 107.11 24.2901 107.46 23.7701L113.13 15.6601H108.19C108.12 15.6614 108.05 15.6487 107.984 15.6226C107.919 15.5966 107.859 15.5578 107.809 15.5084C107.758 15.4591 107.719 15.4002 107.691 15.3352C107.664 15.2703 107.65 15.2005 107.65 15.1301ZM73.2 28.2601H70.32C70.1936 28.2514 70.0742 28.1986 69.9828 28.1109C69.8914 28.0231 69.8338 27.906 69.82 27.7801V13.0601C69.82 12.7601 70.06 12.5301 70.37 12.5301H73.04C73.32 12.5401 73.54 12.7601 73.56 13.0301V14.9501H73.62C74.32 13.0901 75.62 12.2201 77.4 12.2201C79.2 12.2201 80.32 13.0901 81.13 14.9501C81.4157 14.1342 81.9532 13.4301 82.6649 12.9395C83.3767 12.4488 84.2259 12.1969 85.09 12.2201C86.29 12.2201 87.61 12.7201 88.42 13.8301C89.32 15.0701 89.14 16.8701 89.14 18.4501V27.7301C89.14 28.0301 88.89 28.2601 88.59 28.2601H85.72C85.5837 28.2551 85.4543 28.1987 85.3578 28.1023C85.2613 28.0058 85.205 27.8764 85.2 27.7401V19.9401C85.2 19.3101 85.26 17.7601 85.12 17.1801C84.9 16.1801 84.26 15.9101 83.43 15.9101C82.73 15.9101 82.01 16.3701 81.71 17.1101C81.42 17.8601 81.45 19.1001 81.45 19.9301V27.7301C81.45 28.0301 81.2 28.2601 80.89 28.2601H78.02C77.8854 28.2527 77.7585 28.1952 77.6641 28.099C77.5698 28.0028 77.5148 27.8747 77.51 27.7401V19.9401C77.51 18.2901 77.77 15.8801 75.74 15.8801C73.67 15.8801 73.75 18.2301 73.75 19.9301V27.7301C73.75 28.0301 73.5 28.2601 73.2 28.2601ZM126.31 15.2301C124.2 15.2301 124.06 18.1101 124.06 19.9001C124.06 21.7001 124.04 25.5401 126.29 25.5401C128.51 25.5401 128.62 22.4401 128.62 20.5501C128.62 19.3101 128.57 17.8301 128.19 16.6501C127.87 15.6301 127.23 15.2301 126.31 15.2301ZM126.29 12.2201C130.55 12.2201 132.86 15.8801 132.86 20.5201C132.86 25.0201 130.31 28.5701 126.29 28.5701C122.1 28.5701 119.83 24.9201 119.83 20.3701C119.83 15.7801 122.13 12.2201 126.29 12.2201ZM138.39 28.2601H135.52C135.385 28.2527 135.259 28.1952 135.164 28.099C135.07 28.0028 135.015 27.8747 135.01 27.7401V13.0001C135.027 12.8666 135.093 12.7441 135.194 12.6557C135.295 12.5672 135.425 12.519 135.56 12.5201H138.22C138.47 12.5301 138.68 12.7001 138.73 12.9301V15.1801H138.78C139.59 13.1701 140.72 12.2101 142.7 12.2101C143.99 12.2101 145.25 12.6801 146.05 13.9501C146.8 15.1201 146.8 17.1101 146.8 18.5301V27.7901C146.778 27.9198 146.711 28.0376 146.61 28.122C146.509 28.2064 146.382 28.2518 146.25 28.2501H143.37C143.247 28.2422 143.13 28.1923 143.039 28.1085C142.948 28.0248 142.888 27.9124 142.87 27.7901V19.7901C142.87 18.1901 143.05 15.8401 141.07 15.8401C140.37 15.8401 139.72 16.3001 139.4 17.0101C139 17.9101 138.94 18.8101 138.94 19.8001V27.7201C138.94 28.0201 138.69 28.2501 138.39 28.2501M103.01 28.2201C102.916 28.298 102.801 28.3455 102.679 28.3562C102.558 28.3669 102.436 28.3404 102.33 28.2801C101.37 27.4901 101.2 27.1301 100.68 26.3801C99.11 27.9801 97.98 28.4601 95.95 28.4601C93.53 28.4601 91.65 26.9601 91.65 23.9901C91.6155 22.9885 91.8908 22.0006 92.4385 21.1612C92.9861 20.3219 93.7794 19.6719 94.71 19.3001C96.27 18.6201 98.45 18.5001 100.11 18.3001V17.9401C100.11 17.2501 100.17 16.4401 99.76 15.8601C99.41 15.3301 98.74 15.1101 98.15 15.1101C97.05 15.1101 96.08 15.6701 95.84 16.8301C95.79 17.0901 95.6 17.3501 95.34 17.3601L92.56 17.0601C92.32 17.0101 92.06 16.8201 92.13 16.4601C92.77 13.0901 95.82 12.0601 98.55 12.0601C99.95 12.0601 101.78 12.4401 102.88 13.5001C104.28 14.8001 104.14 16.5401 104.14 18.4301V22.9001C104.14 24.2401 104.7 24.8301 105.23 25.5601C105.41 25.8201 105.45 26.1301 105.22 26.3201C104.63 26.8101 103.59 27.7201 103.02 28.2201H103.01ZM100.11 21.2201C100.11 22.3401 100.14 23.2701 99.57 24.2701C99.12 25.0701 98.39 25.5701 97.59 25.5701C96.49 25.5701 95.84 24.7301 95.84 23.4901C95.84 21.0501 98.04 20.6101 100.11 20.6101V21.2201ZM65.35 28.2201C65.2562 28.298 65.1409 28.3455 65.0194 28.3562C64.8979 28.3669 64.776 28.3404 64.67 28.2801C63.72 27.4901 63.55 27.1301 63.02 26.3801C61.45 27.9801 60.33 28.4601 58.29 28.4601C55.87 28.4601 53.99 26.9601 53.99 23.9901C53.9555 22.9885 54.2308 22.0006 54.7785 21.1612C55.3261 20.3219 56.1194 19.6719 57.05 19.3001C58.61 18.6201 60.79 18.5001 62.45 18.3001V17.9401C62.45 17.2501 62.51 16.4401 62.1 15.8601C61.76 15.3301 61.08 15.1101 60.5 15.1101C59.4 15.1101 58.42 15.6701 58.18 16.8301C58.13 17.0901 57.94 17.3501 57.68 17.3601L54.9 17.0601C54.67 17.0101 54.4 16.8201 54.47 16.4601C55.11 13.0901 58.17 12.0601 60.9 12.0601C62.3 12.0601 64.12 12.4401 65.22 13.5001C66.62 14.8001 66.49 16.5401 66.49 18.4301V22.9001C66.49 24.2401 67.04 24.8301 67.57 25.5601C67.75 25.8201 67.79 26.1301 67.56 26.3201C66.97 26.8101 65.93 27.7201 65.36 28.2201H65.35ZM62.45 21.2201C62.45 22.3401 62.48 23.2701 61.92 24.2701C61.46 25.0701 60.74 25.5701 59.92 25.5701C58.82 25.5701 58.18 24.7301 58.18 23.4901C58.18 21.0501 60.38 20.6101 62.46 20.6101V21.2201H62.45Z" fill="black"/>
</g>
<defs>
<clipPath id="clip0_600_118">
<rect width="200" height="40" fill="white"/>
</clipPath>
</defs>
</svg>
