<svg width="200" height="40" viewBox="0 0 200 40" fill="none" xmlns="http://www.w3.org/2000/svg">
<path d="M92.6 21.6499C92.6135 22.7567 92.405 23.8549 91.9867 24.8797C91.5685 25.9045 90.949 26.835 90.165 27.6163C89.3809 28.3975 88.4482 29.0136 87.4219 29.4282C86.3957 29.8428 85.2967 30.0474 84.19 30.0299C83.0841 30.046 81.9862 29.8404 80.9611 29.4253C79.936 29.0101 79.0045 28.3938 78.2215 27.6126C77.4385 26.8315 76.82 25.9015 76.4024 24.8773C75.9847 23.8532 75.7765 22.7558 75.79 21.6499C75.7724 20.5429 75.9777 19.4436 76.3939 18.4177C76.81 17.3917 77.4284 16.4599 78.2123 15.678C78.9961 14.896 79.9293 14.2798 80.9563 13.8661C81.9832 13.4524 83.083 13.2497 84.19 13.2699C88.82 13.2699 92.59 16.7899 92.59 21.6499H92.6ZM88.91 21.6499C88.91 18.6299 86.72 16.5699 84.19 16.5699C81.65 16.5699 79.46 18.6299 79.46 21.6499C79.46 24.6299 81.65 26.7199 84.19 26.7199C86.72 26.7199 88.91 24.6199 88.91 21.6499Z" fill="black"/>
<path d="M110.73 21.65C110.744 22.7568 110.535 23.855 110.117 24.8798C109.699 25.9045 109.079 26.8351 108.295 27.6163C107.511 28.3976 106.578 29.0137 105.552 29.4283C104.526 29.8429 103.427 30.0475 102.32 30.03C101.214 30.0461 100.116 29.8405 99.0912 29.4253C98.0661 29.0102 97.1345 28.3938 96.3515 27.6127C95.5686 26.8316 94.95 25.9015 94.5324 24.8774C94.1148 23.8533 93.9065 22.7559 93.92 21.65C93.9038 20.5433 94.1101 19.4447 94.5268 18.4193C94.9434 17.394 95.5619 16.4628 96.3454 15.6811C97.1289 14.8995 98.0616 14.2832 99.0879 13.869C100.114 13.4548 101.213 13.2511 102.32 13.27C106.95 13.27 110.72 16.79 110.72 21.65H110.73ZM107.05 21.65C107.05 18.63 104.85 16.57 102.32 16.57C99.78 16.57 97.59 18.63 97.59 21.65C97.59 24.63 99.79 26.72 102.32 26.72C104.86 26.72 107.05 24.62 107.05 21.65Z" fill="black"/>
<path d="M128.1 13.77V28.82C128.1 35 124.45 37.53 120.14 37.53C118.55 37.5403 116.994 37.0756 115.67 36.1954C114.346 35.3153 113.316 34.0598 112.71 32.59L115.91 31.26C116.24 32.1195 116.819 32.8612 117.572 33.3902C118.325 33.9192 119.22 34.2116 120.14 34.23C122.9 34.23 124.61 32.53 124.61 29.33V28.12H124.48C123.927 28.7385 123.246 29.2289 122.485 29.5571C121.723 29.8852 120.899 30.0432 120.07 30.02C115.87 30.02 112.04 26.37 112.04 21.68C112.04 16.95 115.88 13.27 120.07 13.27C122.07 13.27 123.65 14.15 124.48 15.14H124.61V13.78H128.11L128.1 13.77ZM124.87 21.67C124.87 18.73 122.9 16.57 120.4 16.57C117.86 16.57 115.73 18.73 115.73 21.67C115.73 24.6 117.86 26.72 120.4 26.72C122.9 26.72 124.87 24.6 124.87 21.68V21.67Z" fill="black"/>
<path d="M133.86 4.95996V29.5H130.27V4.95996H133.86Z" fill="black"/>
<path d="M147.85 24.4L150.71 26.3C149.944 27.4507 148.905 28.3931 147.685 29.0425C146.465 29.6918 145.102 30.0277 143.72 30.02C142.619 30.0351 141.526 29.828 140.506 29.4114C139.486 28.9947 138.561 28.3768 137.785 27.5947C137.01 26.8126 136.4 25.8822 135.992 24.8591C135.584 23.836 135.386 22.7412 135.41 21.64C135.41 16.66 138.99 13.26 143.31 13.26C147.66 13.26 149.79 16.72 150.48 18.59L150.86 19.55L139.66 24.18C140.004 24.9616 140.575 25.6216 141.299 26.0745C142.023 26.5275 142.867 26.7523 143.72 26.72C145.6 26.72 146.9 25.8 147.85 24.4ZM139.05 21.39L146.55 18.28C146.13 17.23 144.9 16.5 143.44 16.5C142.829 16.528 142.231 16.6773 141.678 16.9394C141.126 17.2014 140.632 17.5708 140.224 18.0261C139.816 18.4813 139.503 19.0133 139.303 19.5909C139.104 20.1685 139.021 20.7801 139.06 21.39H139.05Z" fill="black"/>
<path d="M62.2 19.47V15.9H74.18C74.29 16.52 74.35 17.25 74.35 18.05C74.35 20.71 73.62 24.01 71.27 26.36C68.99 28.74 66.07 30.01 62.2 30.01C55.03 30.01 49 24.17 49 17.01C49 9.83 55.03 4 62.2 4C66.17 4 69 5.56 71.12 7.59L68.61 10.09C66.8916 8.43162 64.5879 7.51877 62.2 7.55C60.9629 7.54855 59.7379 7.79314 58.5962 8.26954C57.4545 8.74593 56.419 9.44461 55.5498 10.3249C54.6807 11.2053 53.9953 12.2496 53.5335 13.3973C53.0717 14.545 52.8428 15.773 52.86 17.01C52.86 22.25 56.96 26.47 62.2 26.47C63.4161 26.5203 64.6291 26.3149 65.7608 25.867C66.8925 25.4192 67.9177 24.7388 68.77 23.87C69.77 22.86 70.43 21.42 70.69 19.47H62.19H62.2Z" fill="black"/>
</svg>
