<svg width="200" height="40" viewBox="0 0 200 40" fill="none" xmlns="http://www.w3.org/2000/svg">
<g clip-path="url(#clip0_600_136)">
<path d="M123.579 35.9661H122.06V35.1931H125.936V35.9661H124.417V39.8821H123.579V35.9661ZM118.274 35.9661H116.768V35.1931H120.632V35.9661H119.126V39.8821H118.274V35.9661ZM108.975 35.1931H108.137V39.8831H108.975V35.1931ZM104.208 37.3021C104.417 37.3021 104.587 37.2371 104.705 37.1061C104.827 36.9742 104.893 36.8004 104.889 36.6211C104.893 36.4378 104.827 36.26 104.705 36.1231C104.642 36.0606 104.566 36.012 104.482 35.9805C104.399 35.949 104.31 35.9352 104.221 35.9401H103.33V37.3021H104.208ZM102.518 35.1931H104.208C104.483 35.1931 104.732 35.2331 104.928 35.3241C105.101 35.3965 105.256 35.5056 105.382 35.6437C105.509 35.7818 105.604 35.9457 105.661 36.1241C105.714 36.2941 105.74 36.4511 105.74 36.5941C105.74 36.8831 105.675 37.1581 105.557 37.3811C105.424 37.6135 105.229 37.804 104.994 37.9311L106.028 39.8951H105.072L104.168 38.0491H103.33V39.8951H102.518V35.1931ZM98.798 37.3021C99.008 37.3021 99.178 37.2371 99.296 37.1061C99.4173 36.9741 99.4828 36.8003 99.479 36.6211C99.4828 36.438 99.4175 36.2601 99.296 36.1231C99.2324 36.0605 99.1564 36.0119 99.0728 35.9804C98.9893 35.9488 98.9001 35.9351 98.811 35.9401H97.921V37.3021H98.798ZM97.096 35.1931H98.786C99.06 35.1931 99.309 35.2331 99.506 35.3241C99.702 35.4161 99.859 35.5211 99.977 35.6641C100.095 35.8091 100.187 35.9531 100.239 36.1241C100.306 36.33 100.331 36.5473 100.313 36.7632C100.295 36.979 100.234 37.1891 100.134 37.3811C100.002 37.6136 99.8066 37.8042 99.571 37.9311L100.606 39.8951H99.65L98.746 38.0491H97.895V39.8951H97.082V35.1931H97.096ZM93.769 37.9571L93.179 36.1371L92.577 37.9571H93.769ZM92.76 35.1931H93.625L95.315 39.8831H94.371L93.978 38.6901H92.315L91.922 39.8821H91.044L92.76 35.1931ZM84.928 35.1931H85.714L87.05 37.4071L88.373 35.1931H89.158L89.368 39.8831H88.556L88.399 36.6341L87.233 38.5461H86.827L85.648 36.6731L85.504 39.8831H84.718L84.928 35.1931ZM113.337 39.1751C113.54 39.1801 113.742 39.1378 113.926 39.0513C114.11 38.9649 114.272 38.8368 114.398 38.6771C114.529 38.5201 114.62 38.3491 114.686 38.1401C114.751 37.9431 114.791 37.7341 114.791 37.5111C114.791 37.2881 114.751 37.0791 114.686 36.8691C114.627 36.6768 114.529 36.4988 114.398 36.3461C114.276 36.1923 114.119 36.0708 113.939 35.9921C113.752 35.9012 113.545 35.8563 113.337 35.8611C113.114 35.8611 112.918 35.9011 112.734 35.9911C112.56 36.0815 112.405 36.2057 112.279 36.3564C112.153 36.5071 112.059 36.6814 112.001 36.8691C111.862 37.281 111.862 37.7272 112.001 38.1391C112.066 38.3361 112.158 38.5191 112.289 38.6771C112.42 38.8341 112.564 38.9521 112.734 39.0441C112.918 39.1221 113.114 39.1751 113.337 39.1751ZM113.337 40.0001C113.009 40.0001 112.708 39.9341 112.42 39.8031C112.145 39.6757 111.896 39.498 111.686 39.2791C111.472 39.0513 111.303 38.7845 111.189 38.4931C110.945 37.8701 110.945 37.178 111.189 36.5551C111.307 36.2541 111.477 35.9921 111.686 35.7691C111.896 35.5471 112.132 35.3761 112.42 35.2451C112.708 35.1151 113.009 35.0491 113.337 35.0491C113.664 35.0491 113.965 35.1141 114.254 35.2451C114.529 35.3761 114.777 35.5471 114.987 35.7691C115.197 35.9921 115.367 36.2541 115.485 36.5551C115.729 37.178 115.729 37.8702 115.485 38.4931C115.371 38.7847 115.202 39.0516 114.987 39.2791C114.781 39.502 114.532 39.6803 114.254 39.8031C113.966 39.9345 113.653 40.0017 113.337 40.0001Z" fill="black"/>
<path d="M107.534 30.504H115.065L102.466 0.484L96.14 3.55L100.54 14.002L98.497 18.862L90.612 0L84.221 2.92L89.355 14.97L89.329 15.023C86.159 22.633 82.282 24.715 81.902 24.859C80.6969 25.3551 79.3852 25.5354 78.091 25.383L75 32.011C76.022 32.6 77.174 32.941 78.392 32.941C79.938 32.941 81.352 32.403 82.532 31.513L82.518 31.539C82.518 31.539 85.438 30.059 88.569 21.951C88.569 21.938 89.722 19.358 90.337 17.708L90.403 17.525L95.903 30.517H103.422L99.545 21.375L101.601 16.516L107.534 30.504Z" fill="black"/>
</g>
<defs>
<clipPath id="clip0_600_136">
<rect width="200" height="40" fill="white"/>
</clipPath>
</defs>
</svg>
