<svg width="200" height="40" viewBox="0 0 200 40" fill="none" xmlns="http://www.w3.org/2000/svg">
<path fill-rule="evenodd" clip-rule="evenodd" d="M71.56 11.321C72.1035 12.2488 72.4426 13.282 72.5546 14.3514C72.6665 15.4208 72.5487 16.5018 72.209 17.522V17.52C73.2933 18.72 73.9688 20.2331 74.1381 21.8416C74.3074 23.45 73.9617 25.0706 73.151 26.47C72.6188 27.4046 71.8931 28.2148 71.0226 28.8464C70.152 29.4779 69.1566 29.9162 68.103 30.132C67.6056 31.6722 66.6318 33.0145 65.3221 33.9653C64.0123 34.9161 62.4344 35.4262 60.816 35.422C59.7408 35.429 58.6766 35.2062 57.6946 34.7685C56.7126 34.3308 55.8355 33.6883 55.122 32.884C53.5399 33.2237 51.8908 33.052 50.4126 32.3936C48.9345 31.7353 47.7037 30.6243 46.898 29.221C46.3546 28.2934 46.0156 27.2604 45.9037 26.1911C45.7918 25.1219 45.9095 24.0411 46.249 23.021C45.1641 21.8205 44.4885 20.3064 44.3197 18.6971C44.151 17.0878 44.4977 15.4665 45.31 14.067C45.8423 13.1323 46.5681 12.3221 47.4388 11.6905C48.3096 11.059 49.3052 10.6207 50.359 10.405C50.8567 8.86621 51.8302 7.52517 53.139 6.57517C54.4479 5.62518 56.0247 5.1153 57.642 5.11903C58.7172 5.11266 59.7814 5.33596 60.7633 5.77399C61.7453 6.21203 62.6224 6.85471 63.336 7.65903C64.9179 7.31923 66.567 7.4908 68.0451 8.14899C69.5233 8.80718 70.7541 9.91795 71.56 11.321ZM57.183 32.128C58.2029 32.979 59.4897 33.4441 60.818 33.442C62.3227 33.4389 63.7648 32.8394 64.8284 31.7749C65.8919 30.7104 66.4901 29.2678 66.492 27.763V20.718C66.4901 20.7031 66.4846 20.6889 66.4759 20.6767C66.4671 20.6644 66.4555 20.6546 66.442 20.648L63.892 19.176V27.683C63.8929 27.8572 63.8475 28.0285 63.7603 28.1793C63.6731 28.3301 63.5474 28.4549 63.396 28.541L57.362 32.026C57.3029 32.0617 57.2439 32.0957 57.183 32.128ZM47.94 24.426C47.7118 25.7345 47.9515 27.0816 48.617 28.231C49.3715 29.534 50.613 30.4845 52.0673 30.874C53.5217 31.2636 55.0712 31.0604 56.376 30.309L62.476 26.788C62.4877 26.7786 62.497 26.7665 62.5031 26.7528C62.5092 26.739 62.5119 26.724 62.511 26.709V23.764L55.145 28.018C54.9945 28.1061 54.8233 28.1525 54.649 28.1525C54.4746 28.1525 54.3034 28.1061 54.153 28.018L48.119 24.533C48.0767 24.5085 48.0347 24.4834 47.993 24.458L47.94 24.426ZM49.985 12.569C48.738 13.0265 47.6916 13.9079 47.029 15.059C46.2783 16.3637 46.0747 17.9128 46.4644 19.3667C46.8541 20.8206 47.8044 22.0607 49.107 22.815L55.207 26.34C55.2208 26.346 55.236 26.3484 55.251 26.347C55.266 26.3456 55.2805 26.3405 55.293 26.332L57.843 24.859L50.477 20.606C50.3258 20.5197 50.2003 20.3948 50.1134 20.244C50.0264 20.0933 49.981 19.9221 49.982 19.748V12.778C49.9818 12.7084 49.9828 12.6387 49.985 12.569ZM60.615 15.681L67.982 19.935C68.1329 20.0214 68.2591 20.1465 68.3457 20.2972C68.4324 20.448 68.4773 20.6191 68.476 20.793V27.973C69.4886 27.5999 70.3739 26.9459 71.0283 26.0878C71.6827 25.2297 72.0792 24.203 72.1712 23.1277C72.2632 22.0525 72.047 20.9733 71.5479 20.0165C71.0488 19.0597 70.2874 18.2648 69.353 17.725L63.252 14.2C63.2382 14.1939 63.2231 14.1913 63.2081 14.1926C63.193 14.1938 63.1786 14.1988 63.166 14.207L60.616 15.679L60.615 15.681ZM70.519 16.114C70.4601 16.078 70.4007 16.0426 70.341 16.008L64.307 12.523C64.1565 12.435 63.9853 12.3886 63.811 12.3886C63.6366 12.3886 63.4654 12.435 63.315 12.523L55.949 16.777V13.832C55.9482 13.8169 55.951 13.8019 55.9573 13.7881C55.9636 13.7744 55.9731 13.7623 55.985 13.753L62.085 10.234C63.0192 9.69485 64.0878 9.43295 65.1655 9.47901C66.2432 9.52506 67.2855 9.87715 68.1704 10.4941C69.0553 11.111 69.7461 11.9672 70.162 12.9625C70.578 13.9578 70.7018 15.0509 70.519 16.114ZM52.01 19.89L54.561 21.363V21.361L54.565 12.858C54.5639 12.6838 54.6093 12.5125 54.6965 12.3617C54.7837 12.2109 54.9095 12.0861 55.061 12L61.096 8.51503C61.149 8.48303 61.228 8.43803 61.275 8.41403C60.4457 7.72367 59.4369 7.28381 58.3667 7.14595C57.2965 7.00808 56.2092 7.17791 55.232 7.63555C54.2548 8.0932 53.4282 8.81972 52.8489 9.73009C52.2696 10.6404 51.9616 11.697 51.961 12.776V19.82C51.9628 19.8349 51.9683 19.8492 51.9771 19.8614C51.9858 19.8736 51.9975 19.8835 52.011 19.89H52.01ZM59.228 16.481L55.947 18.376V22.164L59.228 24.058L62.51 22.164V18.375L59.228 16.481ZM78.873 19.687C78.873 24.641 82.055 28.097 86.464 28.097C90.874 28.097 94.055 24.641 94.055 19.687C94.055 14.733 90.873 11.277 86.464 11.277C82.054 11.277 78.873 14.732 78.873 19.687ZM91.146 19.687C91.146 23.232 89.214 25.527 86.464 25.527C83.714 25.527 81.782 23.232 81.782 19.687C81.782 16.142 83.714 13.846 86.464 13.846C89.214 13.846 91.146 16.142 91.146 19.687ZM102.248 28.096C105.589 28.096 107.498 25.277 107.498 21.891C107.498 18.505 105.589 15.686 102.248 15.686C100.702 15.686 99.566 16.3 98.816 17.186V15.913H96.09V31.937H98.817V26.596C99.567 27.482 100.702 28.096 102.248 28.096ZM98.748 21.55C98.748 19.3 100.02 18.073 101.702 18.073C103.68 18.073 104.748 19.618 104.748 21.891C104.748 24.164 103.68 25.709 101.702 25.709C100.02 25.709 98.748 24.459 98.748 22.255V21.55ZM119.992 24.755C119.151 26.845 117.265 28.095 114.878 28.095C111.469 28.095 109.083 25.573 109.083 21.891C109.083 18.391 111.31 15.686 114.765 15.686C118.219 15.686 120.06 18.3 120.06 21.573V22.482H111.697C111.901 24.527 113.128 25.777 114.878 25.777C116.219 25.777 117.288 25.096 117.651 23.868L119.992 24.755ZM117.31 20.436C117.288 19.118 116.469 17.982 114.742 17.982C113.333 17.982 112.242 18.822 111.833 20.436H117.31ZM122.107 27.846H124.835V20.846C124.835 19.141 126.085 18.232 127.312 18.232C128.812 18.232 129.403 19.3 129.403 20.777V27.846H132.13V19.982C132.13 17.413 130.63 15.686 128.13 15.686C126.585 15.686 125.516 16.391 124.835 17.186V15.913H122.107V27.846ZM133.936 27.846L140.118 11.527H143.414L149.596 27.847H146.664L145.255 24.119H138.209L136.823 27.846H133.936ZM144.3 21.573L141.709 14.755L139.163 21.573H144.3ZM154.278 11.575H151.369V27.893H154.278V11.576V11.575Z" fill="black"/>
</svg>
