<svg width="477" height="972" viewBox="0 0 477 972" fill="none" xmlns="http://www.w3.org/2000/svg">
<rect x="23" y="20" width="430" height="932" rx="56" fill="url(#paint0_linear_597_70)"/>
<path fill-rule="evenodd" clip-rule="evenodd" d="M11.2835 41.4967C3 57.754 3 79.036 3 121.6V171H2C0.895431 171 0 171.895 0 173V204C0 205.105 0.895431 206 2 206H3V235H2C0.895431 235 0 235.895 0 237V301C0 302.105 0.895431 303 2 303H3V322H2C0.895431 322 0 322.895 0 324V388C0 389.105 0.895431 390 2 390H3V850.4C3 892.964 3 914.246 11.2835 930.503C18.5699 944.804 30.1964 956.43 44.4967 963.716C60.754 972 82.036 972 124.6 972H351.4C393.964 972 415.246 972 431.503 963.716C445.804 956.43 457.43 944.804 464.716 930.503C473 914.246 473 892.964 473 850.4V388H475C476.105 388 477 387.105 477 386V284C477 282.895 476.105 282 475 282H473V121.6C473 79.036 473 57.754 464.716 41.4967C457.43 27.1964 445.804 15.5699 431.503 8.2835C415.246 0 393.964 0 351.4 0H124.6C82.036 0 60.754 0 44.4967 8.2835C30.1964 15.5699 18.5699 27.1964 11.2835 41.4967ZM29.1036 50.5765C23 62.5556 23 78.237 23 109.6V862.4C23 893.763 23 909.444 29.1036 921.423C34.4725 931.961 43.0395 940.527 53.5765 945.896C65.5556 952 81.2371 952 112.6 952H363.4C394.763 952 410.444 952 422.423 945.896C432.961 940.527 441.527 931.961 446.896 921.423C453 909.444 453 893.763 453 862.4V109.6C453 78.2371 453 62.5556 446.896 50.5765C441.527 40.0395 432.961 31.4725 422.423 26.1036C410.444 20 394.763 20 363.4 20H112.6C81.2371 20 65.5556 20 53.5765 26.1036C43.0395 31.4725 34.4725 40.0395 29.1036 50.5765Z" fill="#F2F2F5"/>
<path d="M176 48C176 37.5066 184.507 29 195 29H283C293.493 29 302 37.5066 302 48C302 58.4934 293.493 67 283 67H195C184.507 67 176 58.4934 176 48Z" fill="#F2F2F5"/>
<circle cx="283" cy="48" r="6" fill="#DEDEE4"/>
<defs>
<linearGradient id="paint0_linear_597_70" x1="382" y1="81.5" x2="238" y2="952" gradientUnits="userSpaceOnUse">
<stop stop-color="white"/>
<stop offset="1" stop-color="#999999"/>
</linearGradient>
</defs>
</svg>
