<svg width="200" height="40" viewBox="0 0 200 40" fill="none" xmlns="http://www.w3.org/2000/svg">
<path fill-rule="evenodd" clip-rule="evenodd" d="M77 40H122.697V0H77V40ZM98.872 12.354C98.848 14.11 98.848 15.772 97.363 17.317C95.557 19.214 92.193 19.845 89.546 19.845C88.3062 19.8529 87.0696 19.7197 85.86 19.448C85.02 19.261 83.931 18.933 82.843 18.254C80.096 16.498 80.073 14.32 80.073 12.354V2.756H84.426V12.472C84.426 13.946 84.747 15.186 86.405 15.936C87.815 16.569 89.076 16.522 90.363 16.475C92.02 16.333 93.084 15.912 93.777 15.164C94.197 14.695 94.569 14.157 94.518 12.494V2.756H98.873L98.872 12.354ZM99.036 32.454C99.036 33.413 98.803 34.42 98.21 35.239C96.793 37.183 94.447 37.183 92.669 37.205H80.165V20.68H91.972C93.854 20.726 96.148 20.773 97.386 22.388C98.03 23.231 98.108 24.144 98.108 24.729C98.108 25.174 98.056 26.111 97.386 26.929C96.638 27.819 95.659 28.1 95.092 28.24C96.226 28.522 99.036 29.153 99.036 32.455V32.454ZM114.395 12.378L119.689 19.283H114.544L109.868 12.635H104.896V19.283H100.517V2.756H112.539C114.519 2.756 116.324 2.92 117.784 4.512C118.675 5.495 118.922 6.736 118.922 7.696C118.922 8.96 118.477 10.459 117.24 11.348C116.3 12.027 115.087 12.26 114.395 12.378ZM119.788 37.231H115.459L106.801 27.914C106.024 27.0711 105.274 26.2047 104.55 25.316C104.674 26.58 104.674 26.861 104.698 28.125V37.231H100.543V20.704H104.897L113.455 29.904C114.494 31.051 114.692 31.286 115.781 32.574C115.633 31.004 115.633 30.583 115.608 29.155V20.704H119.788V37.231ZM114.494 7.743C114.494 7.415 114.444 6.853 114.148 6.455C113.826 6.057 113.405 5.659 111.674 5.659H104.896V9.709H111.872C112.811 9.709 114.494 9.592 114.494 7.743ZM94.473 32.055C94.473 30.065 92.746 30.065 92.076 30.065H84.677V34.303H91.509C92.539 34.303 94.473 34.326 94.473 32.055ZM93.751 25.337C93.751 23.581 92.281 23.557 91.559 23.557H84.677V27.187H91.199C91.74 27.187 92.255 27.163 92.669 27.022C93.751 26.624 93.751 25.524 93.751 25.337Z" fill="black"/>
</svg>
