<svg width="231" height="199" viewBox="0 0 231 199" fill="none" xmlns="http://www.w3.org/2000/svg">
<g clip-path="url(#clip0_660_107)">
<path d="M0 199.395H230L115 0.209473L0 199.395Z" fill="black"/>
<path d="M115 0.209473L230 199.395" stroke="white"/>
<path d="M115 0.209473L0 199.395" stroke="white"/>
<path opacity="0.971429" d="M115 4.50684L230 199.395" stroke="white"/>
<path opacity="0.971429" d="M115 4.50684L0 199.395" stroke="white"/>
<path opacity="0.942857" d="M115 8.80371L230 199.395" stroke="white"/>
<path opacity="0.942857" d="M115 8.80371L0 199.395" stroke="white"/>
<path opacity="0.914286" d="M115 13.1011L230 199.395" stroke="white"/>
<path opacity="0.914286" d="M115 13.1011L0 199.395" stroke="white"/>
<path opacity="0.885714" d="M115 17.3984L230 199.395" stroke="white"/>
<path opacity="0.885714" d="M115 17.3984L0 199.395" stroke="white"/>
<path opacity="0.857143" d="M115 21.6958L230 199.395" stroke="white"/>
<path opacity="0.857143" d="M115 21.6958L0 199.395" stroke="white"/>
<path opacity="0.828571" d="M115 25.9927L230 199.395" stroke="white"/>
<path opacity="0.828571" d="M115 25.9927L0 199.395" stroke="white"/>
<path opacity="0.8" d="M115 30.29L230 199.395" stroke="white"/>
<path opacity="0.8" d="M115 30.29L0 199.395" stroke="white"/>
<path opacity="0.771429" d="M115 34.5874L230 199.395" stroke="white"/>
<path opacity="0.771429" d="M115 34.5874L0 199.395" stroke="white"/>
<path opacity="0.742857" d="M115 38.8848L230 199.396" stroke="white"/>
<path opacity="0.742857" d="M115 38.8848L0 199.396" stroke="white"/>
<path opacity="0.714286" d="M115 43.1816L230 199.395" stroke="white"/>
<path opacity="0.714286" d="M115 43.1816L0 199.395" stroke="white"/>
<path opacity="0.685714" d="M115 47.479L230 199.395" stroke="white"/>
<path opacity="0.685714" d="M115 47.479L0 199.395" stroke="white"/>
<path opacity="0.657143" d="M115 51.7764L230 199.395" stroke="white"/>
<path opacity="0.657143" d="M115 51.7764L0 199.395" stroke="white"/>
<path opacity="0.628571" d="M115 56.0732L230 199.395" stroke="white"/>
<path opacity="0.628571" d="M115 56.0732L0 199.395" stroke="white"/>
<path opacity="0.6" d="M115 60.3706L230 199.395" stroke="white"/>
<path opacity="0.6" d="M115 60.3706L0 199.395" stroke="white"/>
<path opacity="0.571429" d="M115 64.668L230 199.395" stroke="white"/>
<path opacity="0.571429" d="M115 64.668L0 199.395" stroke="white"/>
<path opacity="0.542857" d="M115 68.9653L230 199.395" stroke="white"/>
<path opacity="0.542857" d="M115 68.9653L0 199.395" stroke="white"/>
<path opacity="0.514286" d="M115 73.2622L230 199.395" stroke="white"/>
<path opacity="0.514286" d="M115 73.2622L0 199.395" stroke="white"/>
<path opacity="0.485714" d="M115 77.5596L230 199.395" stroke="white"/>
<path opacity="0.485714" d="M115 77.5596L0 199.395" stroke="white"/>
<path opacity="0.457143" d="M115 81.8569L230 199.395" stroke="white"/>
<path opacity="0.457143" d="M115 81.8569L0 199.395" stroke="white"/>
<path opacity="0.428571" d="M115 86.1543L230 199.395" stroke="white"/>
<path opacity="0.428571" d="M115 86.1543L0 199.395" stroke="white"/>
<path opacity="0.4" d="M115 90.4512L230 199.395" stroke="white"/>
<path opacity="0.4" d="M115 90.4512L0 199.395" stroke="white"/>
<path opacity="0.371429" d="M115 94.7485L230 199.395" stroke="white"/>
<path opacity="0.371429" d="M115 94.7485L0 199.395" stroke="white"/>
<path opacity="0.342857" d="M115 99.0459L230 199.395" stroke="white"/>
<path opacity="0.342857" d="M115 99.0459L0 199.395" stroke="white"/>
<path opacity="0.314286" d="M115 103.343L230 199.395" stroke="white"/>
<path opacity="0.314286" d="M115 103.343L0 199.395" stroke="white"/>
<path opacity="0.285714" d="M115 107.64L230 199.395" stroke="white"/>
<path opacity="0.285714" d="M115 107.64L0 199.395" stroke="white"/>
<path opacity="0.257143" d="M115 111.938L230 199.395" stroke="white"/>
<path opacity="0.257143" d="M115 111.938L0 199.395" stroke="white"/>
<path opacity="0.228571" d="M115 116.235L230 199.395" stroke="white"/>
<path opacity="0.228571" d="M115 116.235L0 199.395" stroke="white"/>
<path opacity="0.2" d="M115 120.532L230 199.396" stroke="white"/>
<path opacity="0.2" d="M115 120.532L0 199.396" stroke="white"/>
<path opacity="0.171429" d="M115 124.829L230 199.395" stroke="white"/>
<path opacity="0.171429" d="M115 124.829L0 199.395" stroke="white"/>
<path opacity="0.142857" d="M115 129.126L230 199.395" stroke="white"/>
<path opacity="0.142857" d="M115 129.126L0 199.395" stroke="white"/>
<path opacity="0.114286" d="M115 133.424L230 199.395" stroke="white"/>
<path opacity="0.114286" d="M115 133.424L0 199.395" stroke="white"/>
<path opacity="0.0857143" d="M115 137.721L230 199.395" stroke="white"/>
<path opacity="0.0857143" d="M115 137.721L0 199.395" stroke="white"/>
<path opacity="0.0571429" d="M115 142.018L230 199.395" stroke="white"/>
<path opacity="0.0571429" d="M115 142.018L0 199.395" stroke="white"/>
<path opacity="0.0285714" d="M115 146.315L230 199.395" stroke="white"/>
<path opacity="0.0285714" d="M115 146.315L0 199.395" stroke="white"/>
</g>
<defs>
<clipPath id="clip0_660_107">
<rect width="231" height="199" fill="white"/>
</clipPath>
</defs>
</svg>
